<svg width="23" height="23" viewBox="0 0 23 23" fill="none" xmlns="http://www.w3.org/2000/svg">
<path fill-rule="evenodd" clip-rule="evenodd" d="M22.5764 11.2879C22.5764 10.2665 22.153 9.4037 21.492 8.53725C20.8552 7.70271 19.9199 6.76738 18.7594 5.60697L16.9692 3.81676C15.8088 2.65631 14.8735 1.72094 14.0389 1.08421C13.1725 0.423124 12.3097 -0.000275196 11.2882 -0.000275152C10.2667 -0.000275107 9.40398 0.423124 8.53753 1.08421C7.70298 1.72094 6.76765 2.6563 5.60724 3.81674L3.81705 5.60694C2.65659 6.76736 1.72122 7.7027 1.08448 8.53725C0.423399 9.4037 -5.38075e-07 10.2665 -4.93424e-07 11.2879C-4.48773e-07 12.3094 0.423399 13.1722 1.08448 14.0386C1.72122 14.8732 2.65659 15.8085 3.81705 16.969L5.60721 18.7591C6.76763 19.9196 7.70298 20.8549 8.53753 21.4917C9.40398 22.1528 10.2667 22.5762 11.2882 22.5762C12.3097 22.5762 13.1725 22.1528 14.0389 21.4917C14.8735 20.855 15.8088 19.9196 16.9692 18.7591L18.7594 16.969C19.9198 15.8085 20.8552 14.8732 21.492 14.0386C22.153 13.1722 22.5764 12.3094 22.5764 11.2879ZM16.7245 11.9243C17.076 11.5729 17.076 11.003 16.7245 10.6516L13.1245 7.05155C12.773 6.70008 12.2032 6.70008 11.8517 7.05155C11.5002 7.40302 11.5002 7.97287 11.8517 8.32434L13.9153 10.3879L7.44809 10.3879C6.95103 10.3879 6.54809 10.7909 6.54809 11.2879C6.54809 11.785 6.95103 12.1879 7.44809 12.1879L13.9153 12.1879L11.8517 14.2516C11.5002 14.603 11.5002 15.1729 11.8517 15.5243C12.2032 15.8758 12.773 15.8758 13.1245 15.5243L16.7245 11.9243Z" fill="#446B80"/>
</svg>
