<svg width="23" height="23" viewBox="0 0 23 23" fill="none" xmlns="http://www.w3.org/2000/svg">
<path fill-rule="evenodd" clip-rule="evenodd" d="M11.2882 22.5764C12.3097 22.5764 13.1725 22.153 14.0389 21.492C14.8735 20.8552 15.8088 19.9199 16.9692 18.7594L18.7594 16.9692C19.9199 15.8088 20.8552 14.8735 21.492 14.0389C22.153 13.1725 22.5764 12.3097 22.5764 11.2882C22.5764 10.2667 22.153 9.40398 21.492 8.53753C20.8552 7.70298 19.9199 6.76765 18.7594 5.60724L16.9692 3.81705C15.8088 2.65659 14.8735 1.72122 14.0389 1.08448C13.1725 0.423399 12.3097 0 11.2882 0C10.2667 0 9.40398 0.423399 8.53753 1.08448C7.70298 1.72122 6.76764 2.65659 5.60721 3.81705L3.81706 5.60721C2.65659 6.76763 1.72122 7.70298 1.08448 8.53753C0.423399 9.40398 0 10.2667 0 11.2882C0 12.3097 0.423399 13.1725 1.08448 14.0389C1.72122 14.8735 2.65658 15.8088 3.81704 16.9692L5.6072 18.7594C6.76762 19.9198 7.70297 20.8552 8.53753 21.492C9.40398 22.153 10.2667 22.5764 11.2882 22.5764ZM10.6518 16.7245C11.0033 17.076 11.5731 17.076 11.9246 16.7245L15.5246 13.1245C15.8761 12.773 15.8761 12.2032 15.5246 11.8517C15.1731 11.5002 14.6033 11.5002 14.2518 11.8517L12.1882 13.9153V7.44809C12.1882 6.95103 11.7853 6.54809 11.2882 6.54809C10.7912 6.54809 10.3882 6.95103 10.3882 7.44809V13.9153L8.32462 11.8517C7.97315 11.5002 7.4033 11.5002 7.05183 11.8517C6.70035 12.2032 6.70035 12.773 7.05183 13.1245L10.6518 16.7245Z" fill="#446B80"/>
</svg>
