<svg width="8" height="8" viewBox="0 0 8 8" fill="none" xmlns="http://www.w3.org/2000/svg">
<path d="M7.11783 0.882177C6.99617 0.760401 6.8517 0.663795 6.69268 0.597884C6.53366 0.531972 6.36321 0.498047 6.19108 0.498047C6.01894 0.498047 5.84849 0.531972 5.68947 0.597884C5.53046 0.663795 5.38599 0.760401 5.26433 0.882177L1.32833 4.81818C1.14149 5.00531 1.0082 5.23908 0.942327 5.49518L0.507327 7.18818C0.49654 7.2303 0.496926 7.27451 0.508447 7.31644C0.519969 7.35837 0.542228 7.39657 0.573026 7.42726C0.603823 7.45796 0.642095 7.48009 0.684062 7.49148C0.726028 7.50286 0.770239 7.5031 0.812327 7.49218L2.50483 7.05768C2.76102 6.99203 2.99485 6.85871 3.18183 6.67168L7.11783 2.73568C7.2396 2.61402 7.33621 2.46955 7.40212 2.31053C7.46803 2.15151 7.50196 1.98106 7.50196 1.80893C7.50196 1.63679 7.46803 1.46634 7.40212 1.30732C7.33621 1.14831 7.2396 1.00384 7.11783 0.882177ZM5.61783 1.23568C5.76986 1.08364 5.97607 0.998229 6.19108 0.998229C6.40609 0.998229 6.61229 1.08364 6.76433 1.23568C6.91636 1.38771 7.00177 1.59392 7.00177 1.80893C7.00177 2.02394 6.91636 2.23014 6.76433 2.38218L6.37483 2.77168L5.22833 1.62518L5.61783 1.23568ZM4.87483 1.97868L6.02133 3.12518L2.82833 6.31818C2.70457 6.44183 2.54983 6.52991 2.38033 6.57318L1.09683 6.90318L1.42683 5.61968C1.46986 5.45008 1.55798 5.29528 1.68183 5.17168L4.87483 1.97868Z" fill="white"/>
</svg>
