<svg width="200" height="175" viewBox="0 0 200 175" fill="none" xmlns="http://www.w3.org/2000/svg">
<mask id="mask0_1_5571" style="mask-type:luminance" maskUnits="userSpaceOnUse" x="0" y="0" width="200" height="175">
<path d="M200 0H0V175H200V0Z" fill="white"/>
</mask>
<g mask="url(#mask0_1_5571)">
<path d="M128.758 108.472C126.755 101.041 121.977 94.8472 115.31 91.0223C113.951 90.2421 112.526 89.5664 111.073 89.0237C104.758 86.6441 97.7578 86.5867 91.3672 88.8619C84.9089 91.1658 79.4662 95.7135 76.0469 101.678C73.7005 105.78 72.4193 110.28 72.2396 114.867H75.2396C75.7995 111.937 78.3646 109.719 81.4505 109.711C84.5469 109.701 87.1302 111.919 87.6901 114.867H94.7578C94.8802 114.173 95.1276 113.497 95.4974 112.85C97.237 109.805 101.12 108.749 104.151 110.499C105.841 111.47 106.914 113.088 107.237 114.867H114.294C114.807 111.89 117.391 109.605 120.516 109.605C123.659 109.597 126.26 111.869 126.773 114.867H129.745C129.661 112.728 129.328 110.586 128.758 108.472ZM94.3672 104.571C91.3464 106.333 87.4714 105.305 85.7057 102.278C83.9479 99.2436 84.974 95.3612 87.9948 93.6001C91.0234 91.8389 94.8984 92.8669 96.6563 95.9039C98.4245 98.9201 97.3984 102.81 94.3672 104.571ZM116.211 102.184C114.474 105.229 110.609 106.275 107.57 104.535C104.531 102.792 103.484 98.9097 105.224 95.8752C106.961 92.8304 110.836 91.7841 113.875 93.5244C116.906 95.2647 117.958 99.1471 116.211 102.184Z" fill="white"/>
<mask id="mask1_1_5571" style="mask-type:luminance" maskUnits="userSpaceOnUse" x="41" y="50" width="120" height="54">
<path d="M41.4974 50.7637H160.526V103.531H41.4974V50.7637Z" fill="white"/>
</mask>
<g mask="url(#mask1_1_5571)">
<path d="M157.411 86.6915C157.953 87.7482 158.477 88.8336 158.979 89.9372C159.482 89.7103 159.987 89.4806 160.5 89.251C137.372 37.9345 64.6406 37.9345 41.513 89.251C42.0182 89.4806 42.5208 89.7103 43.0339 89.9372C43.5287 88.8336 44.0495 87.7482 44.6016 86.6915C44.6302 86.6445 44.6667 86.6158 44.6875 86.6263C45.9792 87.302 47.2604 87.9778 48.5521 88.6536C48.5807 88.6614 48.5807 88.711 48.5521 88.7579C48.0495 89.7363 47.5651 90.7461 47.099 91.7741C47.6224 92.0115 48.1432 92.2489 48.6667 92.4785C49.0365 91.6515 49.4245 90.8322 49.8333 90.0338C50.8776 87.9674 52.7214 86.9602 53.8333 87.6438C57.6511 89.9555 61.4792 92.2698 65.2969 94.5711C66.3984 95.2573 66.6641 96.8749 65.9609 98.263C65.6849 98.8161 65.4193 99.3667 65.1641 99.9381C65.6849 100.175 66.2083 100.413 66.7292 100.643C67.0234 99.985 67.3386 99.3484 67.6511 98.7196C67.6693 98.6909 67.6979 98.6831 67.7188 98.6909C69.0104 99.3667 70.2917 100.042 71.5833 100.718C71.612 100.729 71.6224 100.757 71.6016 100.786C71.3177 101.337 71.0417 101.898 70.7865 102.479C71.2891 102.706 71.7917 102.936 72.3047 103.163C83.4636 78.4049 118.557 78.4049 129.719 103.163C130.221 102.936 130.724 102.706 131.237 102.479C130.982 101.898 130.706 101.337 130.419 100.786C130.411 100.757 130.419 100.729 130.44 100.718C131.732 100.042 133.013 99.3667 134.305 98.6909C134.333 98.6831 134.362 98.6909 134.372 98.7196C134.695 99.3484 134.997 99.985 135.302 100.643C135.826 100.405 136.346 100.168 136.87 99.9381C136.518 99.1579 136.148 98.4065 135.768 97.6629C135.055 96.2931 135.292 94.6859 136.385 93.971C140.164 91.6019 143.953 89.225 147.734 86.8532C148.826 86.1514 150.688 87.122 151.753 89.1571C152.313 90.2321 152.854 91.3357 153.367 92.4785C153.888 92.2411 154.411 92.0011 154.932 91.7741C154.469 90.7461 153.984 89.7363 153.479 88.7579C153.461 88.711 153.461 88.6718 153.479 88.6536C154.771 87.9778 156.055 87.302 157.346 86.6263C157.346 86.6158 157.383 86.6445 157.411 86.6915ZM55.9688 77.4995C54.8672 76.5498 53.7578 75.5974 52.6537 74.6555C52.6354 74.6373 52.6458 74.5877 52.6745 74.5512C53.9271 73.0666 55.237 71.6576 56.5964 70.327C56.6354 70.2878 56.6719 70.2774 56.6901 70.2983C57.7083 71.3445 58.7136 72.4012 59.7318 73.4475C59.75 73.4658 59.7396 73.5049 59.7031 73.5414C58.4401 74.7782 57.224 76.0932 56.0547 77.4708C56.0261 77.4995 55.9896 77.5204 55.9688 77.4995ZM62.3984 70.9923C61.4505 69.8782 60.5 68.7745 59.5599 67.6604C59.5417 67.6422 59.5599 67.5952 59.5964 67.5665C61.0208 66.3376 62.5026 65.187 64.013 64.1016C64.0521 64.0729 64.099 64.0729 64.1094 64.0938C64.9531 65.2835 65.7995 66.4707 66.6458 67.6709C66.6641 67.6891 66.6458 67.7283 66.6068 67.757C65.2005 68.7563 63.8229 69.8312 62.5026 70.974C62.4557 71.0106 62.4193 71.0106 62.3984 70.9923ZM69.5781 65.7192C68.8099 64.4825 68.0417 63.2458 67.263 61.9986C67.2422 61.9804 67.2708 61.9334 67.3099 61.9151C68.8776 60.9445 70.4818 60.0496 72.1146 59.2199C72.1537 59.2016 72.2005 59.2016 72.2109 59.2303C72.8646 60.5349 73.5313 61.8368 74.1849 63.1414C74.1953 63.1701 74.1771 63.1988 74.138 63.2171C72.6198 63.9789 71.1276 64.8165 69.6641 65.7192C69.6354 65.7401 69.599 65.7401 69.5781 65.7192ZM94.0912 57.25C93.9219 55.8045 93.75 54.3591 93.5807 52.911C93.5807 52.8823 93.6068 52.8562 93.6563 52.8562C95.4505 52.6553 97.2552 52.5222 99.0599 52.4753C99.1068 52.4753 99.1458 52.4935 99.1458 52.5222C99.1823 53.9781 99.2318 55.434 99.2682 56.8899C99.2682 56.9186 99.2396 56.9369 99.1927 56.9369C97.5104 56.9839 95.8412 57.1091 94.1693 57.2996C94.1302 57.2891 94.0912 57.2709 94.0912 57.25ZM102.727 56.8795C102.763 55.4236 102.81 53.9677 102.849 52.5118C102.849 52.4831 102.888 52.4648 102.935 52.4648C104.74 52.5222 106.544 52.6449 108.328 52.8458C108.378 52.8562 108.406 52.8745 108.406 52.9032C108.234 54.3486 108.063 55.7941 107.893 57.2422C107.893 57.2709 107.854 57.2891 107.807 57.2787C106.135 57.0882 104.464 56.976 102.784 56.9186C102.755 56.9265 102.727 56.9082 102.727 56.8795ZM127.799 63.131C128.453 61.829 129.12 60.5245 129.773 59.2199C129.784 59.1912 129.831 59.1912 129.87 59.2121C131.503 60.0287 133.107 60.9341 134.674 61.9047C134.714 61.9334 134.732 61.9621 134.721 61.9908C133.953 63.2275 133.185 64.4642 132.406 65.7114C132.385 65.7297 132.349 65.7401 132.32 65.7114C130.857 64.806 129.367 63.9685 127.846 63.2093C127.807 63.1988 127.789 63.1597 127.799 63.131ZM135.359 67.6813C136.203 66.4915 137.049 65.3018 137.896 64.1016C137.914 64.0833 137.951 64.0833 137.99 64.112C139.5 65.187 140.982 66.3376 142.406 67.5665C142.445 67.5952 142.453 67.6422 142.445 67.6604C141.495 68.7745 140.544 69.8782 139.604 70.9923C139.586 71.0106 139.547 71.0001 139.51 70.974C138.18 69.8312 136.813 68.7563 135.406 67.757C135.359 67.7387 135.349 67.6996 135.359 67.6813ZM142.263 73.4371C143.279 72.3908 144.286 71.3341 145.302 70.2878C145.323 70.2696 145.37 70.2774 145.398 70.3165C146.755 71.6472 148.068 73.0561 149.32 74.5407C149.349 74.5799 149.359 74.6268 149.339 74.6451C148.237 75.5974 147.128 76.5498 146.023 77.4917C146.005 77.5099 145.969 77.4917 145.93 77.463C144.76 76.0827 143.547 74.7703 142.284 73.5336C142.255 73.5049 142.245 73.4553 142.263 73.4371ZM155.266 82.9526C154.021 83.7145 152.786 84.4763 151.542 85.2356C151.523 85.246 151.487 85.2278 151.458 85.1886C150.479 83.571 149.443 82.0211 148.362 80.5444C148.333 80.5078 148.333 80.4609 148.352 80.4504C149.51 79.5738 150.68 78.6997 151.836 77.8152C151.857 77.7943 151.904 77.8152 151.932 77.8622C153.102 79.4511 154.221 81.1158 155.266 82.8587C155.284 82.8874 155.294 82.9343 155.266 82.9526ZM129.346 98.8161C129.328 98.824 129.289 98.824 129.281 98.7953C128.729 97.8925 128.151 97.0158 127.542 96.1887C127.523 96.1705 127.534 96.1418 127.552 96.1235C128.711 95.2468 129.88 94.3728 131.036 93.4857C131.057 93.4674 131.094 93.4778 131.104 93.4961C131.797 94.438 132.453 95.419 133.081 96.4549C133.099 96.4836 133.089 96.5123 133.07 96.5305C131.836 97.2924 130.591 98.0543 129.346 98.8161ZM129.576 91.6227C128.474 92.5725 127.362 93.5248 126.26 94.4667C126.242 94.485 126.214 94.485 126.193 94.4667C125.539 93.697 124.854 92.9638 124.151 92.2594C124.133 92.2411 124.133 92.2124 124.151 92.1915C125.169 91.1453 126.174 90.0886 127.19 89.0423C127.211 89.024 127.24 89.024 127.268 89.0423C128.076 89.8329 128.844 90.6704 129.583 91.5445C129.594 91.5732 129.594 91.6123 129.576 91.6227ZM125.492 87.5003C124.542 88.6144 123.591 89.7181 122.651 90.8322C122.633 90.8504 122.604 90.8609 122.586 90.8426C121.844 90.2034 121.076 89.6033 120.286 89.0423C120.268 89.0345 120.268 88.9953 120.276 88.9771C121.122 87.7873 121.969 86.5976 122.813 85.4078C122.831 85.3895 122.859 85.3791 122.88 85.3974C123.771 86.0366 124.646 86.7202 125.492 87.4455C125.51 87.4455 125.51 87.482 125.492 87.5003ZM120.932 84.1528C120.164 85.3895 119.393 86.6263 118.615 87.8734C118.596 87.8917 118.578 87.9021 118.549 87.8917C117.732 87.3881 116.896 86.9211 116.042 86.4932C116.021 86.4827 116.013 86.4541 116.021 86.4254C116.677 85.1234 117.341 83.8188 117.997 82.5143C118.008 82.4856 118.036 82.4777 118.065 82.496C119.034 82.9813 119.982 83.5136 120.914 84.085C120.943 84.0954 120.951 84.1241 120.932 84.1528ZM105.375 78.7754C105.206 80.2208 105.034 81.6689 104.862 83.1144C104.862 83.1431 104.833 83.1613 104.815 83.1613C103.885 83.057 102.945 82.9917 102.003 82.963C101.977 82.963 101.956 82.9422 101.966 82.9161C102.003 81.4602 102.052 80.0043 102.089 78.5484C102.089 78.5197 102.109 78.4988 102.138 78.4988C103.201 78.5275 104.263 78.6032 105.328 78.7284C105.367 78.7284 105.385 78.7467 105.375 78.7754ZM99.9037 78.5379C99.9427 79.9938 99.9896 81.4497 100.029 82.9056C100.029 82.9343 100.01 82.9526 99.9896 82.9526C99.0495 82.9813 98.1094 83.0491 97.1797 83.1535C97.1511 83.1535 97.1328 83.1326 97.1328 83.1039C96.9609 81.6585 96.7891 80.213 96.6198 78.7649C96.6198 78.7362 96.638 78.718 96.6667 78.7101C97.7292 78.5849 98.7943 78.5092 99.8568 78.4805C99.8776 78.491 99.9037 78.5197 99.9037 78.5379ZM83.987 82.5143C84.6432 83.8188 85.3073 85.1234 85.9636 86.4254C85.9714 86.4541 85.9714 86.4827 85.9427 86.4932C85.0886 86.9211 84.2526 87.3881 83.4349 87.8917C83.4167 87.9021 83.388 87.8917 83.3698 87.8734C82.6016 86.6367 81.8307 85.3974 81.0521 84.1528C81.0417 84.1319 81.0417 84.0954 81.0703 84.085C82.0026 83.5136 82.9505 82.9813 83.9115 82.496C83.9401 82.4777 83.9766 82.4856 83.987 82.5143ZM79.1901 85.3974C80.0365 86.5871 80.8802 87.7769 81.7266 88.9666C81.7448 88.9849 81.737 89.0136 81.7162 89.0345C80.9297 89.5955 80.1589 90.1956 79.4193 90.8322C79.4011 90.8504 79.3724 90.8426 79.3516 90.8217C78.4037 89.7103 77.4531 88.604 76.513 87.4925C76.4948 87.4716 76.4948 87.4351 76.5208 87.4246C77.3672 86.7019 78.2422 86.0157 79.1328 85.3791C79.1432 85.3686 79.1719 85.3686 79.1901 85.3974ZM74.8125 89.0527C75.8281 90.099 76.8359 91.1557 77.8516 92.202C77.8698 92.2202 77.8698 92.2489 77.8516 92.2698C77.1406 92.9638 76.4662 93.697 75.8099 94.4771C75.7917 94.4954 75.763 94.4954 75.7422 94.4771C74.6406 93.5248 73.5313 92.5725 72.4297 91.6306C72.4089 91.6123 72.4089 91.5836 72.4297 91.5549C73.1693 90.6809 73.9479 89.8433 74.7448 89.0527C74.7552 89.0345 74.7943 89.0345 74.8125 89.0527ZM53.6432 80.44C53.6615 80.4609 53.6615 80.4974 53.6328 80.5365C52.5417 82.0107 51.5052 83.5631 50.5365 85.1808C50.5078 85.2173 50.4714 85.246 50.4505 85.2278C49.2083 84.4659 47.9714 83.704 46.7292 82.9422C46.7083 82.9343 46.7083 82.8874 46.737 82.8378C47.7839 81.0975 48.8932 79.4329 50.0703 77.8439C50.099 77.8048 50.1484 77.7865 50.1667 77.7943C51.3151 78.6814 52.4844 79.5659 53.6432 80.44ZM82.2578 59.82C82.2682 59.8487 82.2396 59.8774 82.2005 59.8878C80.5964 60.4096 79.0104 61.0098 77.4531 61.6751C77.4141 61.696 77.3776 61.6855 77.3672 61.6568C76.7891 60.3157 76.2083 58.9825 75.6302 57.6414C75.6198 57.6127 75.638 57.584 75.6875 57.5657C77.3672 56.8508 79.0677 56.2142 80.7969 55.6428C80.8438 55.6245 80.8802 55.6323 80.8906 55.661C81.3386 57.0517 81.8021 58.4398 82.2578 59.82ZM86.4844 76.9385C86.9219 78.1674 86.237 79.5372 84.9948 80.0799C79.3229 82.5638 74.1563 86.4462 70.0729 91.7062C69.1719 92.8595 67.6224 93.2952 66.5391 92.5725C62.8542 90.052 59.1693 87.5212 55.4766 84.9982C54.3932 84.2754 54.5078 82.1725 55.8464 80.4504C61.8099 72.7613 69.3412 67.0995 77.625 63.4649C79.4766 62.6457 81.3854 63.1023 81.8229 64.3312C83.3802 68.5475 84.9271 72.743 86.4844 76.9385ZM86 81.5828C85.9922 81.5541 86 81.5254 86.0287 81.515C87.0156 81.0975 88.0234 80.7166 89.0495 80.3826C89.0781 80.3748 89.1068 80.393 89.1146 80.4113C89.5703 81.7915 90.0365 83.1822 90.4922 84.5598C90.5026 84.5885 90.4922 84.6172 90.4636 84.6172C89.5625 84.9121 88.6797 85.246 87.8047 85.6165C87.7865 85.627 87.7578 85.6165 87.7474 85.5878C87.1589 84.2572 86.5807 82.9161 86 81.5828ZM70.9479 93.4961C72.1068 94.3728 73.2734 95.2468 74.4323 96.1313C74.4505 96.1522 74.4609 96.1809 74.4427 96.1992C73.8333 97.0263 73.2552 97.8925 72.7031 98.8057C72.6953 98.824 72.6563 98.8344 72.638 98.824C71.3932 98.0647 70.1589 97.3028 68.9141 96.541C68.8958 96.5305 68.8854 96.494 68.9063 96.4653C69.5234 95.4373 70.1771 94.4484 70.8698 93.5144C70.8906 93.4857 70.9271 93.4778 70.9479 93.4961ZM88.4974 76.2628C87.1589 71.9916 85.8203 67.7283 84.4818 63.4545C84.0729 62.2178 85.3073 60.7149 87.263 60.2479C95.9922 58.1554 105.138 58.0875 113.896 60.0574C115.852 60.4958 117.115 61.9804 116.724 63.2275C115.453 67.5195 114.18 71.8011 112.898 76.0932C112.508 77.3377 111.141 78.0344 109.831 77.7395C103.836 76.388 97.5677 76.435 91.5938 77.8726C90.2839 78.1857 88.9063 77.5099 88.4974 76.2628ZM94.4427 79.0885C94.7005 80.5261 94.9479 81.9637 95.2031 83.3909C95.2031 83.4196 95.1953 83.4379 95.1667 83.4483C94.2344 83.6101 93.3125 83.8084 92.4011 84.0484C92.3828 84.0563 92.3542 84.038 92.3438 84.0093C91.9662 82.6004 91.5859 81.1914 91.2057 79.7851C91.1953 79.7564 91.2136 79.7277 91.2422 79.7277C92.2787 79.4511 93.3229 79.232 94.3776 79.0415C94.4141 79.0415 94.4349 79.0598 94.4427 79.0885ZM110.779 79.7851C110.398 81.1914 110.021 82.6004 109.641 84.0093C109.63 84.038 109.612 84.0484 109.583 84.0484C108.672 83.8084 107.75 83.6101 106.82 83.4483C106.799 83.4483 106.781 83.4196 106.781 83.3909C107.036 81.9533 107.284 80.5157 107.542 79.0885C107.542 79.0598 107.57 79.0415 107.599 79.0519C108.651 79.232 109.698 79.4616 110.732 79.7355C110.771 79.7355 110.779 79.7642 110.779 79.7851ZM112.888 80.4113C112.898 80.3826 112.927 80.3748 112.953 80.3826C113.971 80.7166 114.977 81.0975 115.974 81.515C116.003 81.5254 116.013 81.5541 116.003 81.5828C115.424 82.9239 114.844 84.2572 114.266 85.5983C114.255 85.627 114.227 85.6374 114.208 85.627C113.333 85.2565 112.443 84.9225 111.549 84.6277C111.529 84.6172 111.51 84.5885 111.521 84.5703C111.966 83.1822 112.422 81.7915 112.888 80.4113ZM123.583 63.1414C131.911 66.6429 139.518 72.1716 145.578 79.7355C146.938 81.4315 147.078 83.524 146.005 84.2572C142.359 86.8454 138.711 89.4232 135.065 92.0115C133.992 92.7551 132.435 92.3533 131.521 91.2131C127.372 86.0366 122.156 82.2403 116.458 79.8425C115.206 79.3076 114.503 77.9561 114.919 76.7194C116.411 72.5056 117.904 68.2788 119.393 64.0651C119.82 62.8466 121.721 62.3613 123.583 63.1414ZM124.628 61.6673C124.617 61.696 124.578 61.696 124.531 61.6855C122.974 61.0202 121.388 60.4305 119.784 59.8956C119.745 59.8878 119.716 59.8487 119.727 59.8304C120.182 58.4502 120.648 57.0621 121.104 55.6819C121.112 55.6532 121.151 55.6428 121.198 55.661C122.927 56.2246 124.628 56.8717 126.307 57.584C126.354 57.6022 126.375 57.6414 126.365 57.6596C125.794 58.9825 125.206 60.3235 124.628 61.6673ZM116.411 58.8416C116.401 58.8676 116.365 58.8781 116.326 58.8677C114.693 58.4398 113.049 58.0875 111.396 57.7927C111.359 57.7849 111.32 57.7562 111.331 57.7353C111.586 56.3003 111.833 54.8626 112.091 53.4354C112.099 53.4067 112.138 53.3963 112.185 53.3963C113.971 53.712 115.737 54.0929 117.484 54.5495C117.531 54.5574 117.56 54.5861 117.552 54.6148C117.161 56.0237 116.781 57.4326 116.411 58.8416ZM90.6745 57.7353C90.6823 57.764 90.6458 57.7927 90.6068 57.7927C88.9531 58.0797 87.3021 58.4398 85.6771 58.8677C85.6406 58.8781 85.6016 58.8676 85.5912 58.8416C85.2109 57.4326 84.8333 56.0237 84.4531 54.6148C84.4427 54.5861 84.4714 54.5574 84.5182 54.5495C86.2656 54.0929 88.0417 53.7016 89.8177 53.3963C89.8672 53.3885 89.9037 53.4067 89.9141 53.4354C90.1615 54.8626 90.4167 56.3003 90.6745 57.7353Z" fill="white"/>
</g>
<path d="M48.5417 117.722H153.451V120.044H48.5417V117.722Z" fill="white"/>
<path d="M59.4635 121.909H142.529V124.231H59.4635V121.909Z" fill="white"/>
<mask id="mask2_1_5571" style="mask-type:luminance" maskUnits="userSpaceOnUse" x="70" y="125" width="62" height="4">
<path d="M70 125.572H132V128.544H70V125.572Z" fill="white"/>
</mask>
<g mask="url(#mask2_1_5571)">
<path d="M70.3854 126.097H131.607V128.419H70.3854V126.097Z" fill="white"/>
</g>
<mask id="mask3_1_5571" style="mask-type:luminance" maskUnits="userSpaceOnUse" x="31" y="148" width="9" height="9">
<path d="M31.3568 148.098H39.2969V156.053H31.3568V148.098Z" fill="white"/>
</mask>
<g mask="url(#mask3_1_5571)">
<mask id="mask4_1_5571" style="mask-type:luminance" maskUnits="userSpaceOnUse" x="31" y="148" width="9" height="9">
<path d="M35.3255 148.098C33.1354 148.098 31.3568 149.88 31.3568 152.077C31.3568 154.271 33.1354 156.053 35.3255 156.053C37.5182 156.053 39.2969 154.271 39.2969 152.077C39.2969 149.88 37.5182 148.098 35.3255 148.098Z" fill="white"/>
</mask>
<g mask="url(#mask4_1_5571)">
<mask id="mask5_1_5571" style="mask-type:luminance" maskUnits="userSpaceOnUse" x="31" y="147" width="9" height="10">
<path d="M39.3333 147.615H31.3333V156.298H39.3333V147.615Z" fill="white"/>
</mask>
<g mask="url(#mask5_1_5571)">
<mask id="mask6_1_5571" style="mask-type:luminance" maskUnits="userSpaceOnUse" x="31" y="148" width="9" height="9">
<path d="M31.3568 148.098H39.2969V156.053H31.3568V148.098Z" fill="white"/>
</mask>
<g mask="url(#mask6_1_5571)">
<mask id="mask7_1_5571" style="mask-type:luminance" maskUnits="userSpaceOnUse" x="31" y="148" width="9" height="9">
<path d="M35.3255 148.098C33.1354 148.098 31.3568 149.88 31.3568 152.077C31.3568 154.271 33.1354 156.053 35.3255 156.053C37.5182 156.053 39.2969 154.271 39.2969 152.077C39.2969 149.88 37.5182 148.098 35.3255 148.098Z" fill="white"/>
</mask>
<g mask="url(#mask7_1_5571)">
<path d="M31.3568 148.098H39.2969V156.053H31.3568V148.098Z" fill="white"/>
</g>
</g>
</g>
</g>
</g>
<path d="M40.2917 63.9783L16.7396 62.3606L30.9583 72.2754L33.5417 69.8228L35.3542 71.0856L29.6875 79.247L27.875 77.9841L29.0625 74.9993L12.75 63.6235L10.375 65.7734L8.71875 64.6254L12.9688 58.1651L36.7604 59.9498L22.3021 49.8681L19.9271 52.018L18.2708 50.87L23.5729 42.8965L25.3854 44.1593L24.1979 47.1442L42.9167 60.2003L40.2917 63.9783Z" fill="white"/>
<path d="M36.9969 40.7338C38.5334 38.3621 40.1844 36.5148 41.9553 35.192C43.6792 33.8979 45.2626 33.2586 46.7053 33.2717C48.148 33.2795 49.4865 34.1066 50.7157 35.7556L57.4344 44.7623L60.2365 43.5725L61.4449 45.2007L56.9865 48.7699L54.8303 47.1732C54.4344 49.9154 53.4709 51.8592 51.9449 53.0072C50.4084 54.1552 48.9709 54.6353 47.6324 54.4474C46.2912 54.2544 45.0959 53.4455 44.0386 52.0262C41.7678 48.9787 42.8928 45.7642 47.4136 42.3828L49.7678 40.619L47.9969 38.2499C46.6844 36.4914 45.0959 36.3061 43.2261 37.6968C42.1636 38.4978 41.3693 39.257 40.8407 39.9719L40.5699 40.3685L41.8094 42.8733L39.8928 44.3135L36.9969 40.7338ZM51.1949 42.5393L49.1324 44.0839C47.6584 45.185 46.7574 46.1582 46.424 47.0062C46.0959 47.8489 46.2313 48.6734 46.8303 49.4796C47.398 50.2467 48.0178 50.6955 48.6844 50.8259C49.3511 50.959 50.023 50.7685 50.7053 50.2519C51.0386 50.0015 51.3329 49.6936 51.5907 49.3231C51.8537 48.9474 52.0803 48.5508 52.2678 48.1333C52.4553 47.7106 52.5959 47.2984 52.6949 46.9018C52.799 46.5052 52.8641 46.1582 52.8928 45.8582L52.9553 44.898L51.1949 42.5393Z" fill="white"/>
<path d="M62.6015 23.699L63.9244 26.0681C64.8333 23.4955 66.1588 21.8491 67.9036 21.1316C68.8333 20.7507 69.7838 20.5159 70.7578 20.4324L71.1744 20.3906L73.0286 25.4002L70.8203 26.3081L69.2682 23.9599C67.3151 24.7609 66.0312 26.3186 65.414 28.6355L69.5494 38.7694L73.2994 38.2162L74.0599 40.0948L64.3619 44.0816L63.6015 42.203L66.1432 40.1679L60.9869 27.5501L57.8099 28.0615L57.0494 26.1829L62.6015 23.699Z" fill="white"/>
<path d="M83.9639 17.4775L84.7035 20.0971C86.1878 17.7958 87.8597 16.4965 89.7139 16.2043C90.7139 16.0451 91.693 16.0373 92.6514 16.1834L93.068 16.2356L93.7139 21.5373L91.3493 21.9131L90.3805 19.2726C88.3024 19.6014 86.6956 20.8172 85.5576 22.9254L87.2555 33.7377L91.0368 34.0821L91.3493 36.0859L80.9951 37.714L80.6826 35.7102L83.6305 34.3117L81.516 20.8485L78.3076 20.6085L77.9951 18.6151L83.9639 17.4775Z" fill="white"/>
<path d="M101.483 16.9651C104.212 16.2502 106.673 15.9945 108.868 16.2032C111.014 16.412 112.613 17.0068 113.67 17.9879C114.733 18.9689 115.165 20.4874 114.972 22.5382L113.879 33.7262L116.754 34.7385L116.556 36.7528L110.858 36.3875L110.337 33.7471C108.196 35.5056 106.181 36.2962 104.285 36.1162C102.373 35.9283 100.988 35.3125 100.129 34.2689C99.2666 33.22 98.9229 31.8137 99.0973 30.0525C99.4645 26.2693 102.454 24.6516 108.066 25.1995L110.993 25.4813L111.274 22.5382C111.488 20.3465 110.441 19.1411 108.129 18.9167C106.808 18.7863 105.707 18.8124 104.827 19.0002L104.368 19.0942L103.597 21.7972L101.212 21.5572L101.483 16.9651ZM110.764 27.8609L108.202 27.6104C106.373 27.4382 105.05 27.553 104.233 27.9548C103.42 28.3514 102.965 29.0506 102.868 30.0525C102.777 31.0075 102.933 31.7589 103.337 32.3068C103.738 32.8495 104.363 33.1626 105.212 33.2461C105.629 33.2879 106.056 33.2565 106.493 33.1522C106.936 33.0478 107.371 32.9069 107.795 32.7243C108.217 32.5443 108.6 32.3433 108.941 32.119C109.287 31.8894 109.566 31.6754 109.774 31.4719L110.472 30.7935L110.764 27.8609Z" fill="white"/>
<path d="M133.98 16.8815L132.21 21.9641L137.23 23.7174L136.324 26.337L131.303 24.5837L127.418 35.7403C126.923 37.1545 127.254 38.0599 128.407 38.4643C129.142 38.72 130.142 38.7487 131.407 38.5478L131.71 40.7186C129.73 41.3239 127.91 41.3343 126.251 40.7499C125.069 40.3376 124.243 39.6149 123.772 38.5791C123.298 37.5511 123.379 36.1317 124.012 34.321L127.824 23.373L124.355 22.152L125.147 19.8768L128.73 20.7535L130.262 16.3701L133.98 16.8815Z" fill="white"/>
<path d="M152.511 21.7291C153.891 22.538 154.121 23.7329 153.199 25.3193C152.816 25.982 152.285 26.3577 151.605 26.4464C150.923 26.5378 150.319 26.4256 149.792 26.1125C149.222 25.7863 148.871 25.3193 148.74 24.714C148.608 24.1034 148.746 23.4485 149.157 22.7519C149.558 22.05 150.069 21.6195 150.688 21.4578C151.305 21.2986 151.912 21.3899 152.511 21.7291ZM149.907 30.2245L141.595 44.5643L143.522 46.7455L142.511 48.4989L134.24 43.6876L135.251 41.9343L138.417 42.717L145.251 30.9342L142.928 28.7216L143.938 26.9683L149.907 30.2245Z" fill="white"/>
<path d="M164.036 40.7827L162.526 42.4003L160.411 40.9079L154.318 53.8596L166.693 47.0446L165.214 44.9155L166.599 43.4335L172.745 48.9336L171.234 50.5513L169.516 49.4241L153.391 57.5437L150.443 54.7781L157.453 38.3927L156.484 36.7437L157.87 35.2617L164.036 40.7827Z" fill="white"/>
<path d="M177.137 74.1428L170.387 63.3723C168.679 64.429 167.567 65.6892 167.054 67.1503C166.546 68.6115 166.721 70.0308 167.575 71.4084C167.851 71.8598 168.174 72.2903 168.544 72.7026C168.911 73.1122 169.283 73.4801 169.658 73.8089C170.033 74.1428 170.403 74.4272 170.773 74.6647C171.14 74.8995 171.463 75.0873 171.741 75.2282L172.544 75.6039L171.585 77.7017C170.585 77.3468 169.736 76.9711 169.044 76.5745C168.356 76.178 167.632 75.6561 166.877 75.0091C166.119 74.362 165.452 73.5688 164.877 72.6295C163.356 70.1665 162.945 67.8339 163.648 65.637C164.348 63.4454 165.991 61.5511 168.575 59.9491C169.872 59.1507 171.179 58.6028 172.491 58.3106C173.809 58.0131 175.07 57.961 176.273 58.154C177.473 58.3497 178.58 58.7802 179.596 59.4482C180.616 60.1109 181.473 61.0084 182.169 62.1408C184.877 66.5241 183.783 70.2317 178.887 73.2662L177.137 74.1428ZM172.814 62.0469L177.45 69.5716C178.726 68.7784 179.596 67.8626 180.054 66.8268C180.512 65.7962 180.366 64.6769 179.616 63.4662C178.88 62.2765 177.89 61.5772 176.648 61.3685C175.411 61.1545 174.132 61.3789 172.814 62.0469Z" fill="white"/>
<path d="M55.7389 164.4V162.187L58.7493 161.488L67.1347 138.799L70.8118 138.611L78.9785 161.488L82.0306 162.187V164.4H71.3639V162.187L74.7806 161.488L73.3847 157.397H63.8222L62.3951 161.488L65.8431 162.187V164.4H55.7389ZM68.6764 143.36L64.8222 154.454H72.3951L68.6764 143.36Z" fill="white"/>
<path d="M91.9908 164.4V162.187L95.1158 161.457V141.554L91.9908 140.824V138.799L98.9803 138.611H103.022C105.618 138.611 107.647 139.204 109.105 140.386C110.564 141.562 111.293 143.18 111.293 145.239C111.293 148.85 109.702 151.247 106.522 152.429C107.105 152.946 107.837 154.047 108.72 155.738L111.626 161.603L114.241 162.187V164.4H108.72L105.595 157.585C104.741 155.743 104.001 154.545 103.376 153.995C102.751 153.439 101.837 153.16 100.637 153.16H98.9803V161.457L102.105 162.187V164.4H91.9908ZM98.9803 141.554V150.405H101.741C103.525 150.405 104.92 150.003 105.928 149.194C106.933 148.38 107.439 147.31 107.439 145.98C107.439 144.631 107.006 143.556 106.147 142.755C105.293 141.956 104.191 141.554 102.845 141.554H98.9803Z" fill="white"/>
<path d="M141.86 146.314L140.86 142.108C139.54 141.622 137.969 141.377 136.151 141.377C133.651 141.377 131.737 142.285 130.412 144.101C129.092 145.917 128.433 148.461 128.433 151.73C128.433 155.023 129.146 157.468 130.579 159.067C132.016 160.661 133.935 161.457 136.339 161.457C136.881 161.457 137.464 161.394 138.089 161.269C138.714 161.144 139.318 160.966 139.901 160.737C140.49 160.502 141.029 160.254 141.516 159.996C142.008 159.74 142.415 159.49 142.735 159.244L143.693 158.503L145.162 160.904C144.625 161.441 144.008 161.942 143.308 162.407C142.605 162.874 141.855 163.289 141.058 163.649C140.266 164.003 139.438 164.28 138.579 164.473C137.724 164.666 136.855 164.765 135.974 164.765C132.224 164.765 129.323 163.68 127.276 161.509C125.227 159.333 124.204 156.155 124.204 151.981C124.204 149.893 124.49 148.004 125.068 146.314C125.644 144.618 126.469 143.172 127.547 141.982C128.631 140.793 129.925 139.874 131.433 139.227C132.938 138.575 134.636 138.246 136.526 138.246C137.089 138.246 137.706 138.288 138.381 138.371C139.053 138.455 139.714 138.575 140.36 138.726C141.011 138.872 141.625 139.026 142.204 139.185C142.779 139.347 143.25 139.498 143.62 139.645L144.797 140.083L144.61 146.314H141.86Z" fill="white"/>
<mask id="mask8_1_5571" style="mask-type:luminance" maskUnits="userSpaceOnUse" x="162" y="148" width="9" height="9">
<path d="M162.724 148.098H170.664V156.053H162.724V148.098Z" fill="white"/>
</mask>
<g mask="url(#mask8_1_5571)">
<mask id="mask9_1_5571" style="mask-type:luminance" maskUnits="userSpaceOnUse" x="162" y="148" width="9" height="9">
<path d="M166.695 148.098C164.503 148.098 162.724 149.88 162.724 152.077C162.724 154.271 164.503 156.053 166.695 156.053C168.885 156.053 170.664 154.271 170.664 152.077C170.664 149.88 168.885 148.098 166.695 148.098Z" fill="white"/>
</mask>
<g mask="url(#mask9_1_5571)">
<mask id="mask10_1_5571" style="mask-type:luminance" maskUnits="userSpaceOnUse" x="162" y="147" width="9" height="10">
<path d="M170.667 147.615H162.667V156.298H170.667V147.615Z" fill="white"/>
</mask>
<g mask="url(#mask10_1_5571)">
<mask id="mask11_1_5571" style="mask-type:luminance" maskUnits="userSpaceOnUse" x="162" y="148" width="9" height="9">
<path d="M162.724 148.098H170.664V156.053H162.724V148.098Z" fill="white"/>
</mask>
<g mask="url(#mask11_1_5571)">
<mask id="mask12_1_5571" style="mask-type:luminance" maskUnits="userSpaceOnUse" x="162" y="148" width="9" height="9">
<path d="M166.695 148.098C164.503 148.098 162.724 149.88 162.724 152.077C162.724 154.271 164.503 156.053 166.695 156.053C168.885 156.053 170.664 154.271 170.664 152.077C170.664 149.88 168.885 148.098 166.695 148.098Z" fill="white"/>
</mask>
<g mask="url(#mask12_1_5571)">
<path d="M162.724 148.098H170.664V156.053H162.724V148.098Z" fill="white"/>
</g>
</g>
</g>
</g>
</g>
</g>
</svg>
