<svg width="64" height="21" viewBox="0 0 64 21" fill="none" xmlns="http://www.w3.org/2000/svg">
<g clip-path="url(#clip0_1_5704)">
<path d="M62.0065 12.8337L63.782 14.0173C63.2058 14.8661 61.8275 16.3223 59.4446 16.3223C56.4856 16.3223 54.282 14.0329 54.282 11.1206C54.282 8.02145 56.509 5.91895 59.1955 5.91895C61.8975 5.91895 63.2213 8.06807 63.6496 9.22832L63.8833 9.8202L56.9218 12.7013C57.4513 13.7448 58.2768 14.2743 59.4446 14.2743C60.6128 14.2743 61.4225 13.6981 62.0065 12.8337ZM56.548 10.9572L61.1968 9.02595C60.9398 8.3797 60.1768 7.92032 59.2655 7.92032C58.1054 7.92032 56.4935 8.9482 56.548 10.9572Z" fill="#FF302F"/>
<path d="M50.9259 0.616211H53.1684V15.8475H50.9259V0.616211Z" fill="#20B15A"/>
<path d="M47.3906 6.32376H49.5554V15.5746C49.5554 19.4135 47.2894 20.9943 44.6106 20.9943C42.0878 20.9943 40.5694 19.2968 40.0009 17.9185L41.9865 17.093C42.3446 17.9418 43.209 18.9464 44.6106 18.9464C46.3315 18.9464 47.3906 17.8795 47.3906 15.8861V15.1386H47.3128C46.7988 15.7615 45.8176 16.3221 44.5718 16.3221C41.9709 16.3221 39.588 14.0561 39.588 11.1361C39.588 8.20038 41.9709 5.91113 44.5718 5.91113C45.8099 5.91113 46.7988 6.46401 47.3128 7.07138H47.3906V6.32376ZM47.5463 11.1361C47.5463 9.29838 46.3238 7.95901 44.7664 7.95901C43.1934 7.95901 41.8696 9.29838 41.8696 11.1361C41.8696 12.9504 43.1934 14.2664 44.7664 14.2664C46.3239 14.2743 47.5464 12.9504 47.5464 11.1361" fill="#3686F7"/>
<path d="M27.277 11.0971C27.277 14.0951 24.941 16.2987 22.0754 16.2987C19.2099 16.2987 16.8737 14.0873 16.8737 11.0971C16.8737 8.08357 19.2099 5.8877 22.0754 5.8877C24.941 5.8877 27.277 8.08357 27.277 11.0971ZM25.0032 11.0971C25.0032 9.22832 23.6482 7.94332 22.0754 7.94332C20.5025 7.94332 19.1475 9.22832 19.1475 11.0971C19.1475 12.9503 20.5025 14.2508 22.0754 14.2508C23.6484 14.2508 25.0032 12.9503 25.0032 11.0971Z" fill="#FF302F"/>
<path d="M38.6381 11.1206C38.6381 14.1186 36.302 16.3222 33.4365 16.3222C30.5709 16.3222 28.2349 14.1184 28.2349 11.1206C28.2349 8.10707 30.5709 5.91895 33.4365 5.91895C36.302 5.91895 38.6381 8.09932 38.6381 11.1206ZM36.3565 11.1206C36.3565 9.25182 35.0016 7.96682 33.4286 7.96682C31.8556 7.96682 30.5007 9.25182 30.5007 11.1206C30.5007 12.9738 31.8557 14.2743 33.4286 14.2743C35.0094 14.2743 36.3565 12.9661 36.3565 11.1206Z" fill="#FFBA40"/>
<path d="M8.32374 14.041C5.06099 14.041 2.50699 11.409 2.50699 8.14623C2.50699 4.8836 5.06099 2.2516 8.32374 2.2516C10.0836 2.2516 11.3684 2.9446 12.3184 3.83235L13.8836 2.26723C12.5599 0.997977 10.7922 0.0322266 8.32374 0.0322266C3.85411 0.0323516 0.0929871 3.67673 0.0929871 8.14623C0.0929871 12.6157 3.85411 16.2602 8.32374 16.2602C10.7377 16.2602 12.5599 15.466 13.9849 13.9865C15.4487 12.5225 15.9004 10.4667 15.9004 8.80035C15.9004 8.2786 15.8381 7.74135 15.768 7.34423H8.32374V9.50898H13.6266C13.4709 10.864 13.0426 11.7906 12.4119 12.4212C11.6487 13.1922 10.4419 14.041 8.32374 14.041Z" fill="#3686F7"/>
</g>
<defs>
<clipPath id="clip0_1_5704">
<rect width="64" height="21" fill="white"/>
</clipPath>
</defs>
</svg>
