<svg width="24" height="24" viewBox="0 0 24 24" fill="none" xmlns="http://www.w3.org/2000/svg">
<path d="M13 18.75H6C5.27065 18.75 4.57118 18.4603 4.05546 17.9445C3.53973 17.4288 3.25 16.7293 3.25 16V8C3.25 7.27065 3.53973 6.57118 4.05546 6.05546C4.57118 5.53973 5.27065 5.25 6 5.25H13C13.7293 5.25 14.4288 5.53973 14.9445 6.05546C15.4603 6.57118 15.75 7.27065 15.75 8V16C15.75 16.7293 15.4603 17.4288 14.9445 17.9445C14.4288 18.4603 13.7293 18.75 13 18.75ZM6 6.75C5.66848 6.75 5.35054 6.8817 5.11612 7.11612C4.8817 7.35054 4.75 7.66848 4.75 8V16C4.75 16.3315 4.8817 16.6495 5.11612 16.8839C5.35054 17.1183 5.66848 17.25 6 17.25H13C13.3315 17.25 13.6495 17.1183 13.8839 16.8839C14.1183 16.6495 14.25 16.3315 14.25 16V8C14.25 7.66848 14.1183 7.35054 13.8839 7.11612C13.6495 6.8817 13.3315 6.75 13 6.75H6Z" fill="#446B80"/>
<path d="M20 16.7499C19.8627 16.7473 19.7284 16.7094 19.61 16.6399L14.61 13.6399C14.5002 13.573 14.4094 13.4791 14.3463 13.367C14.2833 13.2549 14.2501 13.1285 14.25 12.9999V10.9999C14.2501 10.8713 14.2833 10.7449 14.3463 10.6328C14.4094 10.5208 14.5002 10.4268 14.61 10.3599L19.61 7.3599C19.7248 7.29118 19.8562 7.25488 19.99 7.25488C20.1238 7.25488 20.2552 7.29118 20.37 7.3599C20.485 7.42513 20.5807 7.51961 20.6475 7.63376C20.7142 7.74791 20.7496 7.87768 20.75 8.0099V16.0099C20.7496 16.1421 20.7142 16.2719 20.6475 16.386C20.5807 16.5002 20.485 16.5947 20.37 16.6599C20.2574 16.7235 20.1293 16.7547 20 16.7499ZM15.75 12.5799L19.25 14.6799V9.3199L15.75 11.4199V12.5799Z" fill="#446B80"/>
</svg>
