<svg width="24" height="24" viewBox="0 0 24 24" fill="none" xmlns="http://www.w3.org/2000/svg">
<path d="M17.708 6C16.4928 4.64142 14.8938 3.68382 13.1225 3.25392C11.3512 2.82401 9.4911 2.94206 7.78836 3.59245C6.08562 4.24284 4.62049 5.39491 3.58684 6.89621C2.5532 8.39751 1.99976 10.1773 1.99976 12C1.99976 13.8227 2.5532 15.6025 3.58684 17.1038C4.62049 18.6051 6.08562 19.7572 7.78836 20.4076C9.4911 21.0579 11.3512 21.176 13.1225 20.7461C14.8938 20.3162 16.4928 19.3586 17.708 18M22 12H7.99996M22 12L18 8M22 12L18 16" stroke="#F7F7F7" stroke-width="1.5"/>
</svg>
