<svg width="22" height="22" viewBox="0 0 22 22" fill="none" xmlns="http://www.w3.org/2000/svg">
<path fill-rule="evenodd" clip-rule="evenodd" d="M12.9697 0.96967C13.6599 0.27941 14.6344 0 15.75 0H17.75C18.8656 0 19.8401 0.27941 20.5303 0.96967C21.2206 1.65993 21.5 2.63439 21.5 3.75V5.75C21.5 6.86561 21.2206 7.84007 20.5303 8.53033C19.8401 9.22059 18.8656 9.5 17.75 9.5H15.75C14.6344 9.5 13.6599 9.22059 12.9697 8.53033C12.2794 7.84007 12 6.86561 12 5.75V3.75C12 2.63439 12.2794 1.65993 12.9697 0.96967ZM14.0303 2.03033C13.7206 2.34007 13.5 2.86561 13.5 3.75V5.75C13.5 6.63439 13.7206 7.15993 14.0303 7.46967C14.3401 7.77941 14.8656 8 15.75 8H17.75C18.6344 8 19.1599 7.77941 19.4697 7.46967C19.7794 7.15993 20 6.63439 20 5.75V3.75C20 2.86561 19.7794 2.34007 19.4697 2.03033C19.1599 1.72059 18.6344 1.5 17.75 1.5H15.75C14.8656 1.5 14.3401 1.72059 14.0303 2.03033Z" fill="#446B80"/>
<path fill-rule="evenodd" clip-rule="evenodd" d="M0.96967 12.9697C1.65993 12.2794 2.63439 12 3.75 12H5.75C6.86561 12 7.84007 12.2794 8.53033 12.9697C9.22059 13.6599 9.5 14.6344 9.5 15.75V17.75C9.5 18.8656 9.22059 19.8401 8.53033 20.5303C7.84007 21.2206 6.86561 21.5 5.75 21.5H3.75C2.63439 21.5 1.65993 21.2206 0.96967 20.5303C0.27941 19.8401 0 18.8656 0 17.75V15.75C0 14.6344 0.27941 13.6599 0.96967 12.9697ZM2.03033 14.0303C1.72059 14.3401 1.5 14.8656 1.5 15.75V17.75C1.5 18.6344 1.72059 19.1599 2.03033 19.4697C2.34007 19.7794 2.86561 20 3.75 20H5.75C6.63439 20 7.15993 19.7794 7.46967 19.4697C7.77941 19.1599 8 18.6344 8 17.75V15.75C8 14.8656 7.77941 14.3401 7.46967 14.0303C7.15993 13.7206 6.63439 13.5 5.75 13.5H3.75C2.86561 13.5 2.34007 13.7206 2.03033 14.0303Z" fill="#446B80"/>
<path fill-rule="evenodd" clip-rule="evenodd" d="M4.75 1.5C2.95507 1.5 1.5 2.95507 1.5 4.75C1.5 6.54493 2.95507 8 4.75 8C6.54493 8 8 6.54493 8 4.75C8 2.95507 6.54493 1.5 4.75 1.5ZM0 4.75C0 2.12665 2.12665 0 4.75 0C7.37335 0 9.5 2.12665 9.5 4.75C9.5 7.37335 7.37335 9.5 4.75 9.5C2.12665 9.5 0 7.37335 0 4.75Z" fill="#446B80"/>
<path fill-rule="evenodd" clip-rule="evenodd" d="M16.75 13.5C14.9551 13.5 13.5 14.9551 13.5 16.75C13.5 18.5449 14.9551 20 16.75 20C18.5449 20 20 18.5449 20 16.75C20 14.9551 18.5449 13.5 16.75 13.5ZM12 16.75C12 14.1266 14.1266 12 16.75 12C19.3734 12 21.5 14.1266 21.5 16.75C21.5 19.3734 19.3734 21.5 16.75 21.5C14.1266 21.5 12 19.3734 12 16.75Z" fill="#446B80"/>
</svg>
