<svg width="24" height="24" viewBox="0 0 24 24" fill="none" xmlns="http://www.w3.org/2000/svg">
<path d="M13.272 14.022C14.3269 12.9671 15.7577 12.3744 17.2496 12.3744C18.7415 12.3744 20.1723 12.9671 21.2272 14.022C22.2822 15.0769 22.8748 16.5077 22.8748 17.9996C22.8748 19.4915 22.2822 20.9223 21.2272 21.9772C21.1581 22.0489 21.0753 22.106 20.9838 22.1453C20.8923 22.1846 20.7939 22.2053 20.6943 22.2062C20.5947 22.2071 20.496 22.1881 20.4038 22.1504C20.3116 22.1127 20.2279 22.057 20.1575 21.9865C20.087 21.9161 20.0313 21.8324 19.9936 21.7402C19.9559 21.648 19.9369 21.5493 19.9378 21.4497C19.9387 21.3501 19.9594 21.2517 19.9987 21.1602C20.038 21.0687 20.0951 20.9859 20.1667 20.9167C20.7436 20.3398 21.1363 19.6048 21.2954 18.8047C21.4545 18.0045 21.3728 17.1752 21.0605 16.4215C20.7483 15.6678 20.2196 15.0236 19.5413 14.5704C18.8629 14.1171 18.0654 13.8752 17.2496 13.8752C16.4338 13.8752 15.6363 14.1171 14.958 14.5704C14.2797 15.0236 13.7509 15.6678 13.4387 16.4215C13.1265 17.1752 13.0447 18.0045 13.2038 18.8047C13.3629 19.6048 13.7557 20.3398 14.3325 20.9167C14.4041 20.9859 14.4613 21.0687 14.5006 21.1602C14.5399 21.2517 14.5606 21.3501 14.5614 21.4497C14.5623 21.5493 14.5433 21.648 14.5056 21.7402C14.4679 21.8324 14.4122 21.9161 14.3418 21.9865C14.2714 22.057 14.1876 22.1127 14.0955 22.1504C14.0033 22.1881 13.9045 22.2071 13.8049 22.2062C13.7054 22.2053 13.6069 22.1846 13.5154 22.1453C13.4239 22.106 13.3412 22.0489 13.272 21.9772C12.7496 21.4549 12.3353 20.8348 12.0525 20.1523C11.7698 19.4698 11.6243 18.7383 11.6243 17.9996C11.6243 17.2609 11.7698 16.5294 12.0525 15.8469C12.3353 15.1644 12.7496 14.5443 13.272 14.022ZM15.1283 15.879C15.68 15.3234 16.4271 15.0056 17.21 14.9934C17.993 14.9812 18.7496 15.2755 19.3185 15.8136C19.8873 16.3517 20.2232 17.0909 20.2544 17.8733C20.2857 18.6556 20.0098 19.4192 19.4858 20.001C19.353 20.1492 19.1668 20.2386 18.9681 20.2495C18.7694 20.2604 18.5746 20.1919 18.4264 20.0591C18.2782 19.9263 18.1888 19.7401 18.1779 19.5415C18.167 19.3428 18.2355 19.1479 18.3682 18.9997C18.5611 18.7839 18.6874 18.5168 18.7318 18.2307C18.7763 17.9447 18.737 17.6519 18.6188 17.3876C18.5005 17.1234 18.3083 16.899 18.0654 16.7416C17.8224 16.5842 17.5391 16.5004 17.2496 16.5004C16.9601 16.5004 16.6768 16.5842 16.4339 16.7416C16.191 16.899 15.9988 17.1234 15.8805 17.3876C15.7622 17.6519 15.723 17.9447 15.7674 18.2307C15.8119 18.5168 15.9381 18.7839 16.131 18.9997C16.2615 19.1483 16.3281 19.3423 16.3163 19.5397C16.3044 19.737 16.2152 19.9217 16.0679 20.0536C15.9206 20.1855 15.7272 20.2538 15.5297 20.2439C15.3323 20.2339 15.1467 20.1463 15.0135 20.0002C14.5024 19.4287 14.2294 18.6832 14.2508 17.9168C14.2721 17.1504 14.5861 16.4212 15.1283 15.879ZM12 12.75C12.2902 12.75 12.5677 12.8055 12.8228 12.9052C12.0928 13.5382 11.5076 14.3207 11.1068 15.1998C10.7061 16.0789 10.4991 17.0339 10.5 18C10.5005 18.398 10.534 18.786 10.6005 19.164C9.855 19.374 8.9565 19.5 7.875 19.5C1.53 19.5 1.5 15.1537 1.5 15.1125V15C1.5 14.4033 1.73705 13.831 2.15901 13.409C2.58097 12.9871 3.15326 12.75 3.75 12.75H12ZM7.875 3C8.96902 3 10.0182 3.4346 10.7918 4.20818C11.5654 4.98177 12 6.03098 12 7.125C12 8.21902 11.5654 9.26823 10.7918 10.0418C10.0182 10.8154 8.96902 11.25 7.875 11.25C6.78098 11.25 5.73177 10.8154 4.95818 10.0418C4.1846 9.26823 3.75 8.21902 3.75 7.125C3.75 6.03098 4.1846 4.98177 4.95818 4.20818C5.73177 3.4346 6.78098 3 7.875 3ZM17.25 5.25C18.0456 5.25 18.8087 5.56607 19.3713 6.12868C19.9339 6.69129 20.25 7.45435 20.25 8.25C20.25 9.04565 19.9339 9.80871 19.3713 10.3713C18.8087 10.9339 18.0456 11.25 17.25 11.25C16.4544 11.25 15.6913 10.9339 15.1287 10.3713C14.5661 9.80871 14.25 9.04565 14.25 8.25C14.25 7.45435 14.5661 6.69129 15.1287 6.12868C15.6913 5.56607 16.4544 5.25 17.25 5.25Z" fill="#446B80"/>
</svg>
