<svg width="130" height="114" viewBox="0 0 130 114" fill="none" xmlns="http://www.w3.org/2000/svg">
<mask id="mask0_1_6191" style="mask-type:luminance" maskUnits="userSpaceOnUse" x="0" y="0" width="130" height="114">
<path d="M130 0H0V114H130V0Z" fill="white"/>
</mask>
<g mask="url(#mask0_1_6191)">
<path d="M83.6926 70.662C82.3909 65.8213 79.2848 61.7863 74.9515 59.2946C74.0679 58.7864 73.142 58.3462 72.1974 57.9926C68.0926 56.4425 63.5426 56.4052 59.3887 57.8873C55.1908 59.3881 51.653 62.3506 49.4305 66.236C47.9054 68.9079 47.0725 71.8398 46.9557 74.8278H48.9057C49.2697 72.9191 50.937 71.4744 52.9429 71.4693C54.9555 71.4625 56.6347 72.9072 56.9986 74.8278H61.5926C61.6722 74.3757 61.833 73.9355 62.0733 73.514C63.2041 71.5305 65.7279 70.8421 67.6982 71.9826C68.7968 72.6149 69.4942 73.6687 69.7041 74.8278H74.2913C74.6248 72.8885 76.3039 71.3996 78.3352 71.3996C80.3783 71.3945 82.0693 72.8749 82.4028 74.8278H84.3341C84.28 73.4341 84.0633 72.0387 83.6926 70.662ZM61.3387 68.121C59.3752 69.2682 56.8564 68.5986 55.7087 66.6269C54.5662 64.6502 55.2331 62.1211 57.1966 60.9739C59.1653 59.8266 61.684 60.4963 62.8266 62.4747C63.9759 64.4395 63.309 66.9737 61.3387 68.121ZM75.5371 66.5658C74.4081 68.5493 71.8961 69.2308 69.9207 68.0972C67.9453 66.9618 67.2649 64.4327 68.3956 62.456C69.5246 60.4725 72.0434 59.7909 74.0188 60.9246C75.9891 62.0582 76.6729 64.5873 75.5371 66.5658Z" fill="#446B80"/>
<mask id="mask1_1_6191" style="mask-type:luminance" maskUnits="userSpaceOnUse" x="26" y="33" width="79" height="35">
<path d="M26.9733 33.0686H104.342V67.4426H26.9733V33.0686Z" fill="white"/>
</mask>
<g mask="url(#mask1_1_6191)">
<path d="M102.317 56.473C102.67 57.1614 103.01 57.8684 103.336 58.5874C103.663 58.4395 103.992 58.2899 104.325 58.1404C89.2921 24.7113 42.0164 24.7113 26.9835 58.1404C27.3118 58.2899 27.6385 58.4395 27.972 58.5874C28.2936 57.8684 28.6322 57.1614 28.991 56.473C29.0096 56.4424 29.0333 56.4237 29.0469 56.4305C29.8865 56.8707 30.7193 57.3109 31.5589 57.7512C31.5775 57.7563 31.5775 57.7885 31.5589 57.8191C31.2322 58.4565 30.9173 59.1143 30.6143 59.784C30.9546 59.9386 31.2931 60.0933 31.6333 60.2429C31.8737 59.7041 32.1259 59.1704 32.3917 58.6503C33.0704 57.3041 34.2689 56.6481 34.9917 57.0934C37.4732 58.5993 39.9615 60.1069 42.443 61.606C43.159 62.053 43.3316 63.1068 42.8746 64.011C42.6952 64.3714 42.5225 64.73 42.3566 65.1022C42.6952 65.2569 43.0354 65.4115 43.374 65.5611C43.5652 65.1328 43.7701 64.7181 43.9732 64.3085C43.985 64.2898 44.0036 64.2847 44.0172 64.2898C44.8568 64.73 45.6896 65.1702 46.5292 65.6104C46.5478 65.6172 46.5546 65.6359 46.541 65.6546C46.3565 66.0132 46.1771 66.3787 46.0112 66.7577C46.3379 66.9056 46.6646 67.0551 46.998 67.203C54.2513 51.0749 77.0622 51.0749 84.3172 67.203C84.6439 67.0551 84.9706 66.9056 85.304 66.7577C85.1382 66.3787 84.9587 66.0132 84.7725 65.6546C84.7674 65.6359 84.7725 65.6172 84.7861 65.6104C85.6257 65.1702 86.4585 64.73 87.298 64.2898C87.3167 64.2847 87.3353 64.2898 87.3421 64.3085C87.552 64.7181 87.7483 65.1328 87.9464 65.5611C88.2866 65.4064 88.6251 65.2518 88.9654 65.1022C88.7369 64.594 88.4965 64.1045 88.2494 63.6201C87.7855 62.7278 87.9396 61.6808 88.6505 61.2151C91.1066 59.6718 93.5695 58.1234 96.0273 56.5784C96.7366 56.1212 97.9469 56.7535 98.6392 58.0792C99.0031 58.7795 99.3552 59.4984 99.6887 60.2429C100.027 60.0882 100.367 59.9318 100.706 59.784C100.405 59.1143 100.09 58.4565 99.7615 57.8191C99.7496 57.7885 99.7496 57.7631 99.7615 57.7512C100.601 57.3109 101.436 56.8707 102.275 56.4305C102.275 56.4237 102.299 56.4424 102.317 56.473ZM36.3797 50.4851C35.6637 49.8664 34.9426 49.246 34.2249 48.6324C34.213 48.6205 34.2198 48.5883 34.2384 48.5645C35.0526 47.5973 35.904 46.6795 36.7876 45.8127C36.813 45.7872 36.8367 45.7804 36.8486 45.794C37.5104 46.4756 38.1638 47.1639 38.8256 47.8455C38.8375 47.8574 38.8307 47.8829 38.807 47.9067C37.9861 48.7123 37.1956 49.569 36.4355 50.4664C36.4169 50.4851 36.3932 50.4987 36.3797 50.4851ZM40.559 46.2461C39.9428 45.5204 39.325 44.8014 38.7139 44.0756C38.7021 44.0637 38.7139 44.0331 38.7376 44.0145C39.6635 43.2139 40.6267 42.4644 41.6085 41.7573C41.6339 41.7386 41.6643 41.7386 41.6711 41.7522C42.2195 42.5272 42.7697 43.3006 43.3198 44.0824C43.3316 44.0943 43.3198 44.1198 43.2944 44.1385C42.3803 44.7895 41.4849 45.4898 40.6267 46.2342C40.5962 46.258 40.5725 46.258 40.559 46.2461ZM45.2258 42.8111C44.7264 42.0054 44.2271 41.1998 43.721 40.3874C43.7074 40.3755 43.726 40.3449 43.7514 40.333C44.7704 39.7007 45.8131 39.1177 46.8745 38.5772C46.8999 38.5653 46.9303 38.5653 46.9371 38.584C47.362 39.4339 47.7953 40.282 48.2202 41.1318C48.227 41.1505 48.2151 41.1692 48.1897 41.1811C47.2029 41.6774 46.2329 42.223 45.2816 42.8111C45.263 42.8247 45.2393 42.8247 45.2258 42.8111ZM61.1592 37.294C61.0492 36.3524 60.9375 35.4107 60.8275 34.4674C60.8275 34.4487 60.8444 34.4317 60.8766 34.4317C62.0428 34.3009 63.2159 34.2142 64.3889 34.1836C64.4194 34.1836 64.4448 34.1955 64.4448 34.2142C64.4685 35.1626 64.5006 36.111 64.5243 37.0594C64.5243 37.0781 64.5057 37.09 64.4753 37.09C63.3818 37.1206 62.2967 37.2022 61.21 37.3263C61.1846 37.3195 61.1592 37.3076 61.1592 37.294ZM66.7723 37.0526C66.796 36.1042 66.8264 35.1558 66.8518 34.2074C66.8518 34.1887 66.8772 34.1768 66.9077 34.1768C68.0807 34.2142 69.2538 34.2941 70.4133 34.4249C70.4454 34.4317 70.4641 34.4436 70.4641 34.4623C70.3523 35.4039 70.2406 36.3456 70.1306 37.2889C70.1306 37.3076 70.1052 37.3195 70.0747 37.3127C68.988 37.1886 67.9013 37.1155 66.8095 37.0781C66.7909 37.0832 66.7723 37.0713 66.7723 37.0526ZM83.0697 41.125C83.4945 40.2769 83.9279 39.4271 84.3527 38.5772C84.3595 38.5585 84.39 38.5585 84.4154 38.5721C85.4767 39.1041 86.5194 39.6939 87.5384 40.3262C87.5638 40.3449 87.5757 40.3636 87.5689 40.3823C87.0695 41.1879 86.5702 41.9936 86.0641 42.806C86.0505 42.8179 86.0268 42.8247 86.0082 42.806C85.0569 42.2162 84.0887 41.6706 83.1001 41.176C83.0747 41.1692 83.0629 41.1437 83.0697 41.125ZM87.9836 44.0892C88.532 43.3142 89.0822 42.5391 89.6323 41.7573C89.6441 41.7454 89.6678 41.7454 89.6932 41.7641C90.675 42.4644 91.6382 43.2139 92.5641 44.0145C92.5895 44.0331 92.5945 44.0637 92.5895 44.0756C91.9716 44.8014 91.3538 45.5204 90.7427 46.2461C90.7309 46.258 90.7055 46.2512 90.6818 46.2342C89.8168 45.4898 88.9281 44.7895 88.0141 44.1385C87.9836 44.1266 87.9768 44.1011 87.9836 44.0892ZM92.471 47.8387C93.1311 47.1571 93.7862 46.4688 94.4464 45.7872C94.4599 45.7753 94.4904 45.7804 94.509 45.8059C95.3909 46.6727 96.244 47.5906 97.0582 48.5577C97.0768 48.5832 97.0836 48.6137 97.0701 48.6256C96.354 49.246 95.6329 49.8664 94.9152 50.48C94.9034 50.4919 94.8797 50.48 94.8543 50.4613C94.0943 49.5622 93.3055 48.7072 92.4845 47.9016C92.4659 47.8829 92.4591 47.8506 92.471 47.8387ZM100.923 54.0374C100.114 54.5337 99.3112 55.03 98.5021 55.5246C98.4902 55.5314 98.4665 55.5195 98.4479 55.494C97.8115 54.4402 97.1378 53.4306 96.4353 52.4686C96.4167 52.4448 96.4167 52.4142 96.4285 52.4074C97.1818 51.8363 97.9418 51.2669 98.6934 50.6907C98.7069 50.6771 98.7374 50.6907 98.756 50.7213C99.516 51.7564 100.244 52.8408 100.923 53.9762C100.935 53.9949 100.941 54.0255 100.923 54.0374ZM84.0751 64.3714C84.0633 64.3765 84.0379 64.3765 84.0328 64.3578C83.674 63.7697 83.2982 63.1986 82.9021 62.6598C82.8902 62.6479 82.897 62.6292 82.9089 62.6173C83.6621 62.0462 84.4221 61.4768 85.1737 60.8989C85.1872 60.887 85.2109 60.8938 85.2177 60.9057C85.668 61.5193 86.0945 62.1584 86.5025 62.8332C86.5143 62.8519 86.5076 62.8705 86.4957 62.8824C85.6934 63.3787 84.8842 63.875 84.0751 64.3714ZM84.2241 59.6854C83.5081 60.3041 82.7853 60.9244 82.0693 61.538C82.0574 61.5499 82.0388 61.5499 82.0253 61.538C81.6004 61.0366 81.1552 60.559 80.6982 60.1001C80.6863 60.0882 80.6863 60.0695 80.6982 60.0559C81.36 59.3743 82.0134 58.686 82.6736 58.0044C82.6871 57.9925 82.7057 57.9925 82.7243 58.0044C83.2491 58.5194 83.7484 59.065 84.2292 59.6344C84.2359 59.6531 84.2359 59.6786 84.2241 59.6854ZM81.5699 56.9999C80.9521 57.7257 80.3342 58.4446 79.7232 59.1704C79.7113 59.1823 79.6927 59.1891 79.6809 59.1772C79.1984 58.7608 78.6991 58.3698 78.1862 58.0044C78.1743 57.9993 78.1744 57.9738 78.1794 57.9619C78.7296 57.1869 79.2797 56.4118 79.8281 55.6368C79.84 55.6249 79.8586 55.6181 79.8721 55.63C80.451 56.0464 81.0198 56.4917 81.5699 56.9642C81.5818 56.9642 81.5818 56.988 81.5699 56.9999ZM78.606 54.8192C78.1066 55.6249 77.6056 56.4305 77.0995 57.243C77.0876 57.2549 77.0758 57.2617 77.0572 57.2549C76.5257 56.9268 75.9823 56.6226 75.4271 56.3438C75.4135 56.337 75.4085 56.3183 75.4135 56.2996C75.8401 55.4515 76.2717 54.6017 76.6983 53.7518C76.7051 53.7331 76.7237 53.728 76.7423 53.7399C77.372 54.0561 77.9882 54.4028 78.5941 54.775C78.6128 54.7818 78.6178 54.8005 78.606 54.8192ZM68.4937 51.3162C68.3837 52.2578 68.272 53.2011 68.1603 54.1428C68.1603 54.1615 68.1417 54.1734 68.1298 54.1734C67.5255 54.1054 66.9145 54.0629 66.3017 54.0442C66.2848 54.0442 66.2712 54.0306 66.278 54.0136C66.3017 53.0652 66.3339 52.1168 66.3576 51.1683C66.3576 51.1497 66.3711 51.1361 66.3897 51.1361C67.0803 51.1547 67.771 51.204 68.4633 51.2856C68.4887 51.2856 68.5005 51.2975 68.4937 51.3162ZM64.9374 51.1615C64.9628 52.11 64.9932 53.0584 65.0186 54.0068C65.0186 54.0255 65.0068 54.0374 64.9932 54.0374C64.3822 54.0561 63.7711 54.1003 63.1668 54.1683C63.1482 54.1683 63.1363 54.1547 63.1363 54.136C63.0246 53.1943 62.9129 52.2527 62.8029 51.3094C62.8029 51.2907 62.8147 51.2788 62.8333 51.2737C63.524 51.1921 64.2163 51.1429 64.9069 51.1242C64.9204 51.131 64.9374 51.1497 64.9374 51.1615ZM54.5915 53.7518C55.0181 54.6017 55.4497 55.4515 55.8763 56.2996C55.8814 56.3183 55.8814 56.337 55.8628 56.3438C55.3076 56.6226 54.7642 56.9268 54.2327 57.2549C54.2208 57.2617 54.2022 57.2549 54.1904 57.243C53.691 56.4373 53.19 55.63 52.6839 54.8192C52.6771 54.8056 52.6771 54.7818 52.6957 54.775C53.3017 54.4028 53.9178 54.0561 54.5424 53.7399C54.5611 53.728 54.5848 53.7331 54.5915 53.7518ZM51.4736 55.63C52.0237 56.405 52.5721 57.1801 53.1223 57.9551C53.1341 57.967 53.129 57.9857 53.1155 57.9993C52.6043 58.3647 52.1033 58.7557 51.6225 59.1704C51.6107 59.1823 51.5921 59.1772 51.5785 59.1636C50.9624 58.4395 50.3445 57.7189 49.7335 56.9948C49.7216 56.9812 49.7216 56.9574 49.7385 56.9506C50.2887 56.4798 50.8574 56.0328 51.4363 55.6181C51.4431 55.6113 51.4617 55.6113 51.4736 55.63ZM48.6281 58.0112C49.2883 58.6928 49.9434 59.3811 50.6035 60.0627C50.6154 60.0746 50.6154 60.0933 50.6035 60.1069C50.1414 60.559 49.703 61.0366 49.2764 61.5448C49.2646 61.5567 49.246 61.5567 49.2324 61.5448C48.5164 60.9244 47.7953 60.3041 47.0793 59.6905C47.0658 59.6786 47.0658 59.6599 47.0793 59.6412C47.56 59.0718 48.0661 58.5262 48.5841 58.0112C48.5909 57.9993 48.6163 57.9993 48.6281 58.0112ZM34.8681 52.4006C34.8799 52.4142 34.8799 52.438 34.8613 52.4635C34.1521 53.4238 33.4784 54.4351 32.8487 55.4889C32.8301 55.5127 32.8064 55.5314 32.7928 55.5195C31.9854 55.0232 31.1814 54.5269 30.374 54.0306C30.3604 54.0255 30.3604 53.9949 30.379 53.9626C31.0595 52.8289 31.7806 51.7445 32.5457 50.7094C32.5643 50.6839 32.5965 50.672 32.6083 50.6771C33.3548 51.255 34.1148 51.8312 34.8681 52.4006ZM53.4676 38.9681C53.4743 38.9868 53.4557 39.0055 53.4303 39.0123C52.3876 39.3523 51.3568 39.7432 50.3445 40.1766C50.3191 40.1902 50.2954 40.1834 50.2887 40.1647C49.9129 39.2911 49.5354 38.4226 49.1596 37.5489C49.1529 37.5302 49.1647 37.5115 49.1969 37.4996C50.2887 37.0339 51.394 36.6192 52.518 36.247C52.5484 36.2351 52.5721 36.2402 52.5789 36.2589C52.8701 37.1648 53.1714 38.069 53.4676 38.9681ZM56.2148 50.1197C56.4992 50.9202 56.054 51.8125 55.2466 52.1661C51.5599 53.7841 48.2016 56.3132 45.5474 59.7398C44.9617 60.491 43.9546 60.7749 43.2504 60.3041C40.8552 58.6622 38.46 57.0135 36.0598 55.3699C35.3556 54.8991 35.4301 53.5292 36.3001 52.4074C40.1764 47.3985 45.0717 43.7102 50.4562 41.3426C51.6598 40.8089 52.9005 41.1063 53.1849 41.9069C54.1971 44.6535 55.2026 47.3866 56.2148 50.1197ZM55.9 53.1451C55.8949 53.1264 55.9 53.1077 55.9186 53.1009C56.5602 52.8289 57.2152 52.5808 57.8822 52.3632C57.9008 52.3581 57.9194 52.37 57.9245 52.3819C58.2207 53.281 58.5237 54.187 58.8199 55.0844C58.8267 55.1031 58.8199 55.1218 58.8013 55.1218C58.2156 55.3138 57.6418 55.5314 57.073 55.7727C57.0612 55.7795 57.0426 55.7727 57.0358 55.754C56.6533 54.8872 56.2775 54.0136 55.9 53.1451ZM46.1161 60.9057C46.8694 61.4768 47.6277 62.0462 48.381 62.6224C48.3928 62.636 48.3996 62.6547 48.3878 62.6666C47.9917 63.2054 47.6159 63.7697 47.257 64.3646C47.252 64.3765 47.2266 64.3833 47.2147 64.3765C46.4056 63.8818 45.6033 63.3855 44.7941 62.8892C44.7823 62.8824 44.7755 62.8587 44.7891 62.84C45.1902 62.1703 45.6151 61.5261 46.0654 60.9176C46.0789 60.8989 46.1026 60.8938 46.1161 60.9057ZM57.5233 49.6794C56.6533 46.8971 55.7832 44.1198 54.9131 41.3358C54.6474 40.5301 55.4497 39.5511 56.721 39.2469C62.3949 37.8838 68.3397 37.8396 74.0323 39.1228C75.3035 39.4084 76.1245 40.3755 75.8706 41.1879C75.0445 43.9839 74.2168 46.773 73.384 49.569C73.1301 50.3797 72.2414 50.8335 71.39 50.6415C67.4934 49.761 63.419 49.7916 59.5359 50.7281C58.6845 50.9321 57.7891 50.4919 57.5233 49.6794ZM61.3878 51.5202C61.5553 52.4567 61.7161 53.3932 61.882 54.3229C61.882 54.3416 61.877 54.3535 61.8583 54.3603C61.2523 54.4657 60.6531 54.5949 60.0607 54.7512C60.0488 54.7563 60.0302 54.7444 60.0234 54.7257C59.778 53.8079 59.5309 52.8901 59.2837 51.974C59.277 51.9553 59.2888 51.9366 59.3074 51.9366C59.9811 51.7564 60.6599 51.6137 61.3454 51.4896C61.3691 51.4896 61.3827 51.5015 61.3878 51.5202ZM72.0061 51.974C71.759 52.8901 71.5135 53.8079 71.2664 54.7257C71.2596 54.7444 71.2478 54.7512 71.2292 54.7512C70.6367 54.5949 70.0375 54.4657 69.4332 54.3603C69.4197 54.3603 69.4078 54.3416 69.4078 54.3229C69.5737 53.3864 69.7345 52.4499 69.9021 51.5202C69.9021 51.5015 69.9207 51.4896 69.9393 51.4964C70.6232 51.6137 71.3036 51.7632 71.9757 51.9417C72.001 51.9417 72.0061 51.9604 72.0061 51.974ZM73.3772 52.3819C73.384 52.3632 73.4026 52.3581 73.4195 52.3632C74.0814 52.5808 74.7348 52.8289 75.3831 53.1009C75.4017 53.1077 75.4085 53.1264 75.4017 53.1451C75.0259 54.0187 74.6484 54.8872 74.2727 55.7608C74.2659 55.7795 74.2473 55.7863 74.2354 55.7795C73.6667 55.5382 73.0878 55.3206 72.5072 55.1286C72.4936 55.1218 72.4818 55.1031 72.4885 55.0912C72.778 54.187 73.0742 53.281 73.3772 52.3819ZM80.3292 41.1318C85.7425 43.4128 90.6869 47.0144 94.6258 51.9417C95.5094 53.0465 95.6008 54.4096 94.9034 54.8872C92.5336 56.5733 90.1621 58.2526 87.7923 59.9386C87.0949 60.423 86.0827 60.1613 85.4885 59.4185C82.7921 56.0464 79.4016 53.5734 75.6979 52.0114C74.8837 51.663 74.4267 50.7825 74.6975 49.9769C75.6674 47.2319 76.6374 44.4785 77.6056 41.7335C77.8832 40.9398 79.1189 40.6236 80.3292 41.1318ZM81.0079 40.1715C81.0012 40.1902 80.9758 40.1902 80.9453 40.1834C79.9331 39.75 78.9022 39.3659 77.8595 39.0174C77.8341 39.0123 77.8155 38.9868 77.8223 38.9749C78.1185 38.0758 78.4215 37.1716 78.7177 36.2725C78.7228 36.2538 78.7482 36.247 78.7786 36.2589C79.9026 36.626 81.0079 37.0475 82.0997 37.5115C82.1302 37.5234 82.1437 37.5489 82.137 37.5608C81.7663 38.4226 81.3837 39.2962 81.0079 40.1715ZM75.6674 38.3308C75.6607 38.3478 75.637 38.3546 75.6116 38.3478C74.5503 38.069 73.4822 37.8396 72.4073 37.6475C72.3836 37.6424 72.3582 37.6237 72.365 37.6101C72.5309 36.6753 72.6917 35.7388 72.8592 34.8091C72.8643 34.7904 72.8897 34.7836 72.9202 34.7836C74.0814 34.9892 75.229 35.2374 76.3648 35.5348C76.3953 35.5399 76.4139 35.5586 76.4089 35.5773C76.1549 36.4951 75.9078 37.413 75.6674 38.3308ZM58.9384 37.6101C58.9435 37.6288 58.9198 37.6475 58.8944 37.6475C57.8195 37.8345 56.7464 38.069 55.6901 38.3478C55.6664 38.3546 55.641 38.3478 55.6342 38.3308C55.3871 37.413 55.1417 36.4951 54.8945 35.5773C54.8878 35.5586 54.9064 35.5399 54.9368 35.5348C56.0727 35.2374 57.2271 34.9824 58.3815 34.7836C58.4137 34.7785 58.4374 34.7904 58.4441 34.8091C58.6049 35.7388 58.7708 36.6753 58.9384 37.6101Z" fill="#446B80"/>
</g>
<path d="M31.5521 76.6873H99.7429V78.2H31.5521V76.6873Z" fill="#446B80"/>
<path d="M38.6516 79.415H92.6439V80.9277H38.6516V79.415Z" fill="#446B80"/>
<mask id="mask2_1_6191" style="mask-type:luminance" maskUnits="userSpaceOnUse" x="45" y="81" width="41" height="3">
<path d="M45.5 81.8015H85.8V83.7374H45.5V81.8015Z" fill="white"/>
</mask>
<g mask="url(#mask2_1_6191)">
<path d="M45.7505 82.1433H85.5444V83.656H45.7505V82.1433Z" fill="#446B80"/>
</g>
<mask id="mask3_1_6191" style="mask-type:luminance" maskUnits="userSpaceOnUse" x="20" y="96" width="6" height="6">
<path d="M20.3819 96.4749H25.543V101.657H20.3819V96.4749Z" fill="white"/>
</mask>
<g mask="url(#mask3_1_6191)">
<mask id="mask4_1_6191" style="mask-type:luminance" maskUnits="userSpaceOnUse" x="20" y="96" width="6" height="6">
<path d="M22.9616 96.4749C21.538 96.4749 20.3819 97.6357 20.3819 99.0668C20.3819 100.496 21.538 101.657 22.9616 101.657C24.3868 101.657 25.543 100.496 25.543 99.0668C25.543 97.6357 24.3868 96.4749 22.9616 96.4749Z" fill="white"/>
</mask>
<g mask="url(#mask4_1_6191)">
<mask id="mask5_1_6191" style="mask-type:luminance" maskUnits="userSpaceOnUse" x="20" y="96" width="6" height="6">
<path d="M25.5666 96.1604H20.3666V101.817H25.5666V96.1604Z" fill="white"/>
</mask>
<g mask="url(#mask5_1_6191)">
<mask id="mask6_1_6191" style="mask-type:luminance" maskUnits="userSpaceOnUse" x="20" y="96" width="6" height="6">
<path d="M20.3819 96.4749H25.543V101.657H20.3819V96.4749Z" fill="white"/>
</mask>
<g mask="url(#mask6_1_6191)">
<mask id="mask7_1_6191" style="mask-type:luminance" maskUnits="userSpaceOnUse" x="20" y="96" width="6" height="6">
<path d="M22.9616 96.4749C21.538 96.4749 20.3819 97.6357 20.3819 99.0668C20.3819 100.496 21.538 101.657 22.9616 101.657C24.3868 101.657 25.543 100.496 25.543 99.0668C25.543 97.6357 24.3868 96.4749 22.9616 96.4749Z" fill="white"/>
</mask>
<g mask="url(#mask7_1_6191)">
<path d="M20.3819 96.4749H25.543V101.657H20.3819V96.4749Z" fill="#446B80"/>
</g>
</g>
</g>
</g>
</g>
<path d="M26.1896 41.6774L10.8807 40.6236L20.1229 47.0823L21.8021 45.4846L22.9802 46.3073L19.2969 51.6238L18.1187 50.8012L18.8906 48.8568L8.28749 41.4462L6.74374 42.8468L5.66718 42.0989L8.42968 37.8905L23.8943 39.0531L14.4963 32.4856L12.9526 33.8861L11.876 33.1383L15.3224 27.9441L16.5005 28.7667L15.7286 30.7111L27.8958 39.2163L26.1896 41.6774Z" fill="#446B80"/>
<path d="M24.048 26.5355C25.0467 24.9905 26.1199 23.7871 27.2709 22.9254C28.3915 22.0824 29.4207 21.6659 30.3584 21.6744C31.2962 21.6795 32.1662 22.2183 32.9652 23.2925L37.3324 29.1598L39.1537 28.3847L39.9392 29.4453L37.0412 31.7705L35.6397 30.7303C35.3824 32.5166 34.7561 33.7829 33.7642 34.5307C32.7655 35.2786 31.8311 35.5913 30.961 35.4689C30.0893 35.3432 29.3123 34.8163 28.6251 33.8916C27.149 31.9064 27.8803 29.8124 30.8188 27.6097L32.349 26.4607L31.198 24.9174C30.3449 23.7718 29.3123 23.6512 28.097 24.5571C27.4063 25.0789 26.8901 25.5735 26.5464 26.0392L26.3704 26.2975L27.1761 27.9292L25.9303 28.8674L24.048 26.5355ZM33.2767 27.7117L31.936 28.7179C30.978 29.4351 30.3923 30.0691 30.1756 30.6215C29.9623 31.1705 30.0503 31.7076 30.4397 32.2328C30.8087 32.7325 31.2115 33.0248 31.6449 33.1098C32.0782 33.1965 32.5149 33.0724 32.9584 32.7359C33.1751 32.5727 33.3664 32.3721 33.5339 32.1308C33.7049 31.886 33.8522 31.6277 33.974 31.3557C34.0959 31.0804 34.1873 30.8118 34.2517 30.5535C34.3194 30.2952 34.3617 30.0691 34.3803 29.8736L34.4209 29.2482L33.2767 27.7117Z" fill="#446B80"/>
<path d="M40.691 15.4384L41.5509 16.9817C42.1416 15.3058 43.0032 14.2333 44.1373 13.7659C44.7416 13.5178 45.3595 13.3648 45.9925 13.3104L46.2634 13.2832L47.4686 16.5466L46.0332 17.138L45.0243 15.6083C43.7548 16.1301 42.9203 17.1448 42.5191 18.6541L45.2071 25.2556L47.6446 24.8953L48.1389 26.1191L41.8352 28.7162L41.341 27.4924L42.9931 26.1667L39.6415 17.9471L37.5764 18.2802L37.0821 17.0565L40.691 15.4384Z" fill="#446B80"/>
<path d="M54.5763 11.3851L55.0571 13.0916C56.0219 11.5925 57.1086 10.746 58.3138 10.5557C58.9638 10.452 59.6003 10.4469 60.2232 10.5421L60.4941 10.5761L60.9138 14.0298L59.3769 14.2745L58.7472 12.5545C57.3964 12.7686 56.352 13.5607 55.6123 14.934L56.7159 21.9774L59.1737 22.2018L59.3769 23.5071L52.6467 24.5677L52.4435 23.2624L54.3597 22.3513L52.9852 13.5811L50.8998 13.4247L50.6967 12.1261L54.5763 11.3851Z" fill="#446B80"/>
<path d="M65.9638 11.0512C67.7378 10.5855 69.3374 10.4189 70.7643 10.5549C72.1591 10.6909 73.1984 11.0784 73.8857 11.7175C74.5763 12.3566 74.8573 13.3458 74.732 14.6817L74.0211 21.9699L75.8898 22.6293L75.7612 23.9415L72.0576 23.7035L71.719 21.9835C70.3276 23.129 69.0174 23.644 67.7852 23.5268C66.5427 23.4044 65.6422 23.0033 65.0836 22.3234C64.5233 21.6401 64.2999 20.724 64.4133 19.5767C64.652 17.1122 66.5952 16.0584 70.243 16.4154L72.1456 16.5989L72.3284 14.6817C72.4672 13.254 71.7867 12.4687 70.2836 12.3226C69.4254 12.2376 68.7094 12.2546 68.1372 12.3769L67.8393 12.4381L67.3383 14.199L65.7878 14.0426L65.9638 11.0512ZM71.9966 18.149L70.331 17.9858C69.1427 17.8737 68.2828 17.9485 67.7513 18.2102C67.2232 18.4686 66.927 18.9241 66.8643 19.5767C66.8051 20.1988 66.9066 20.6883 67.169 21.0452C67.4297 21.3988 67.8359 21.6027 68.3878 21.6571C68.6586 21.6843 68.9362 21.6639 69.2206 21.5959C69.5083 21.5279 69.791 21.4362 70.0669 21.3172C70.3411 21.1999 70.59 21.069 70.8117 20.9229C71.0368 20.7733 71.218 20.6339 71.3534 20.5014L71.807 20.0594L71.9966 18.149Z" fill="#446B80"/>
<path d="M87.0872 10.9972L85.9362 14.3081L89.1997 15.4503L88.6107 17.1568L85.3471 16.0146L82.8216 23.2824C82.5 24.2036 82.715 24.7934 83.4648 25.0568C83.9422 25.2234 84.5922 25.2421 85.4148 25.1112L85.6112 26.5253C84.3247 26.9197 83.1415 26.9265 82.0633 26.5457C81.2948 26.2772 80.7582 25.8064 80.4518 25.1316C80.1437 24.462 80.1962 23.5373 80.6075 22.3578L83.0857 15.226L80.831 14.4305L81.3456 12.9484L83.6747 13.5195L84.67 10.6641L87.0872 10.9972Z" fill="#446B80"/>
<path d="M99.1321 14.1549C100.029 14.6818 100.178 15.4603 99.579 16.4937C99.3301 16.9254 98.9848 17.1701 98.543 17.2279C98.0995 17.2874 97.7068 17.2143 97.3649 17.0104C96.9942 16.7979 96.7657 16.4937 96.681 16.0994C96.5947 15.7016 96.6844 15.275 96.9519 14.8212C97.2126 14.364 97.5443 14.0836 97.9472 13.9782C98.3484 13.8745 98.7428 13.934 99.1321 14.1549ZM97.4394 19.6891L92.0363 29.0304L93.2889 30.4513L92.6321 31.5935L87.256 28.4593L87.9128 27.3172L89.9711 27.8271L94.4128 20.1514L92.9029 18.71L93.5597 17.5679L97.4394 19.6891Z" fill="#446B80"/>
<path d="M106.624 26.567L105.642 27.6207L104.267 26.6485L100.307 35.0857L108.35 30.6462L107.389 29.2592L108.289 28.2938L112.284 31.8767L111.302 32.9305L110.185 32.1962L99.7039 37.4856L97.7878 35.684L102.345 25.0101L101.715 23.9359L102.615 22.9705L106.624 26.567Z" fill="#446B80"/>
<path d="M115.139 48.2987L110.752 41.2824C109.641 41.9708 108.918 42.7917 108.585 43.7435C108.255 44.6954 108.368 45.62 108.923 46.5174C109.103 46.8114 109.313 47.0919 109.553 47.3604C109.792 47.6273 110.034 47.8669 110.278 48.0811C110.521 48.2987 110.762 48.4839 111.002 48.6386C111.241 48.7916 111.451 48.9139 111.632 49.0057L112.153 49.2505L111.53 50.617C110.88 50.3858 110.328 50.1411 109.878 49.8827C109.431 49.6244 108.961 49.2845 108.47 48.8629C107.977 48.4414 107.544 47.9247 107.17 47.3128C106.181 45.7084 105.914 44.1889 106.371 42.7577C106.826 41.33 107.894 40.0961 109.573 39.0525C110.416 38.5324 111.266 38.1754 112.119 37.9851C112.976 37.7913 113.795 37.7573 114.577 37.8831C115.357 38.0106 116.077 38.291 116.737 38.7261C117.401 39.1578 117.957 39.7425 118.409 40.4802C120.17 43.3356 119.459 45.7509 116.277 47.7276L115.139 48.2987ZM112.329 40.419L115.342 45.3208C116.172 44.8041 116.737 44.2076 117.035 43.5328C117.333 42.8614 117.238 42.1323 116.751 41.3436C116.271 40.5686 115.628 40.1131 114.821 39.9771C114.017 39.8377 113.186 39.9839 112.329 40.419Z" fill="#446B80"/>
<path d="M36.2303 107.095V105.654L38.1871 105.198L43.6376 90.418L46.0277 90.2957L51.336 105.198L53.3199 105.654V107.095H46.3865V105.654L48.6074 105.198L47.7001 102.533H41.4845L40.5568 105.198L42.798 105.654V107.095H36.2303ZM44.6397 93.389L42.1345 100.616H47.0568L44.6397 93.389Z" fill="#446B80"/>
<path d="M59.794 107.095V105.654L61.8253 105.178V92.2129L59.794 91.737V90.418L64.3372 90.2957H66.9643C68.6519 90.2957 69.9706 90.6815 70.9185 91.4514C71.8664 92.218 72.3404 93.2718 72.3404 94.6128C72.3404 96.9651 71.3061 98.5271 69.2393 99.2971C69.6185 99.6336 70.0941 100.351 70.668 101.452L72.557 105.273L74.2565 105.654V107.095H70.668L68.6367 102.656C68.0815 101.456 67.6008 100.676 67.1945 100.317C66.7883 99.9549 66.1941 99.773 65.4138 99.773H64.3372V105.178L66.3685 105.654V107.095H59.794ZM64.3372 92.2129V97.9781H66.1315C67.291 97.9781 68.1983 97.7164 68.8534 97.1895C69.5068 96.6592 69.8352 95.9623 69.8352 95.0955C69.8352 94.2168 69.5542 93.5165 68.9956 92.9947C68.4404 92.4746 67.7243 92.2129 66.8492 92.2129H64.3372Z" fill="#446B80"/>
<path d="M92.2092 95.313L91.5592 92.5731C90.701 92.257 89.6803 92.0972 88.4988 92.0972C86.8738 92.0972 85.6296 92.6887 84.768 93.8717C83.9098 95.0546 83.4816 96.7118 83.4816 98.8415C83.4816 100.986 83.9454 102.579 84.8764 103.621C85.8107 104.659 87.0583 105.178 88.6206 105.178C88.9727 105.178 89.3519 105.137 89.7581 105.055C90.1644 104.974 90.5571 104.858 90.9363 104.709C91.3188 104.556 91.6692 104.394 91.9857 104.226C92.3057 104.059 92.5697 103.896 92.7779 103.737L93.4008 103.254L94.3555 104.818C94.0068 105.168 93.6057 105.494 93.1503 105.797C92.6933 106.101 92.2058 106.371 91.6878 106.606C91.1732 106.837 90.6349 107.017 90.0764 107.143C89.5211 107.268 88.9558 107.333 88.3836 107.333C85.9461 107.333 84.0605 106.626 82.73 105.212C81.3978 103.794 80.7326 101.724 80.7326 99.0047C80.7326 97.6449 80.9188 96.4144 81.2946 95.313C81.6687 94.2082 82.2053 93.2666 82.906 92.4915C83.6102 91.7165 84.4515 91.1182 85.4316 90.6967C86.4099 90.2718 87.5136 90.0576 88.7425 90.0576C89.1081 90.0576 89.5093 90.0848 89.9477 90.1392C90.3844 90.1936 90.8144 90.2718 91.2342 90.3704C91.6573 90.4655 92.0568 90.5658 92.4326 90.6695C92.8067 90.7749 93.1131 90.8735 93.3534 90.9686L94.1185 91.2542L93.9967 95.313H92.2092Z" fill="#446B80"/>
<mask id="mask8_1_6191" style="mask-type:luminance" maskUnits="userSpaceOnUse" x="105" y="96" width="6" height="6">
<path d="M105.771 96.4749H110.932V101.657H105.771V96.4749Z" fill="white"/>
</mask>
<g mask="url(#mask8_1_6191)">
<mask id="mask9_1_6191" style="mask-type:luminance" maskUnits="userSpaceOnUse" x="105" y="96" width="6" height="6">
<path d="M108.352 96.4749C106.927 96.4749 105.771 97.6357 105.771 99.0668C105.771 100.496 106.927 101.657 108.352 101.657C109.776 101.657 110.932 100.496 110.932 99.0668C110.932 97.6357 109.776 96.4749 108.352 96.4749Z" fill="white"/>
</mask>
<g mask="url(#mask9_1_6191)">
<mask id="mask10_1_6191" style="mask-type:luminance" maskUnits="userSpaceOnUse" x="105" y="96" width="6" height="6">
<path d="M110.933 96.1604H105.733V101.817H110.933V96.1604Z" fill="white"/>
</mask>
<g mask="url(#mask10_1_6191)">
<mask id="mask11_1_6191" style="mask-type:luminance" maskUnits="userSpaceOnUse" x="105" y="96" width="6" height="6">
<path d="M105.771 96.4749H110.932V101.657H105.771V96.4749Z" fill="white"/>
</mask>
<g mask="url(#mask11_1_6191)">
<mask id="mask12_1_6191" style="mask-type:luminance" maskUnits="userSpaceOnUse" x="105" y="96" width="6" height="6">
<path d="M108.352 96.4749C106.927 96.4749 105.771 97.6357 105.771 99.0668C105.771 100.496 106.927 101.657 108.352 101.657C109.776 101.657 110.932 100.496 110.932 99.0668C110.932 97.6357 109.776 96.4749 108.352 96.4749Z" fill="white"/>
</mask>
<g mask="url(#mask12_1_6191)">
<path d="M105.771 96.4749H110.932V101.657H105.771V96.4749Z" fill="#446B80"/>
</g>
</g>
</g>
</g>
</g>
</g>
</svg>
