<svg width="130" height="114" viewBox="0 0 130 114" fill="none" xmlns="http://www.w3.org/2000/svg">
<mask id="mask0_1_2354" style="mask-type:luminance" maskUnits="userSpaceOnUse" x="0" y="0" width="130" height="114">
<path d="M130 0H0V114H130V0Z" fill="white"/>
</mask>
<g mask="url(#mask0_1_2354)">
<path d="M83.6927 70.662C82.391 65.8213 79.2849 61.7863 74.9515 59.2946C74.0679 58.7864 73.142 58.3462 72.1975 57.9926C68.0927 56.4425 63.5427 56.4052 59.3888 57.8873C55.1908 59.3881 51.6531 62.3506 49.4306 66.236C47.9054 68.9079 47.0726 71.8398 46.9558 74.8278H48.9058C49.2697 72.9191 50.9371 71.4744 52.9429 71.4693C54.9556 71.4625 56.6347 72.9072 56.9987 74.8278H61.5927C61.6722 74.3757 61.833 73.9355 62.0734 73.514C63.2041 71.5305 65.7279 70.8421 67.6983 71.9826C68.7968 72.6149 69.4942 73.6687 69.7041 74.8278H74.2914C74.6248 72.8885 76.304 71.3996 78.3352 71.3996C80.3783 71.3945 82.0694 72.8749 82.4028 74.8278H84.3342C84.28 73.4341 84.0634 72.0387 83.6927 70.662ZM61.3388 68.121C59.3752 69.2682 56.8565 68.5986 55.7088 66.6269C54.5662 64.6502 55.2332 62.1211 57.1967 60.9739C59.1653 59.8266 61.6841 60.4963 62.8266 62.4747C63.976 64.4395 63.3091 66.9737 61.3388 68.121ZM75.5372 66.5658C74.4082 68.5493 71.8962 69.2308 69.9208 68.0972C67.9454 66.9618 67.2649 64.4327 68.3957 62.456C69.5247 60.4725 72.0434 59.7909 74.0188 60.9246C75.9891 62.0582 76.673 64.5873 75.5372 66.5658Z" fill="white"/>
<mask id="mask1_1_2354" style="mask-type:luminance" maskUnits="userSpaceOnUse" x="26" y="33" width="79" height="35">
<path d="M26.9734 33.0688H104.342V67.4429H26.9734V33.0688Z" fill="white"/>
</mask>
<g mask="url(#mask1_1_2354)">
<path d="M102.317 56.4732C102.669 57.1616 103.01 57.8687 103.336 58.5876C103.663 58.4398 103.991 58.2902 104.325 58.1406C89.292 24.7116 42.0163 24.7116 26.9834 58.1406C27.3118 58.2902 27.6385 58.4398 27.9719 58.5876C28.2936 57.8687 28.6321 57.1616 28.991 56.4732C29.0096 56.4427 29.0333 56.424 29.0468 56.4308C29.8864 56.871 30.7192 57.3112 31.5588 57.7514C31.5774 57.7565 31.5774 57.7888 31.5588 57.8194C31.2321 58.4568 30.9173 59.1145 30.6143 59.7842C30.9545 59.9389 31.293 60.0935 31.6333 60.2431C31.8736 59.7043 32.1258 59.1706 32.3916 58.6505C33.0704 57.3044 34.2688 56.6483 34.9916 57.0936C37.4731 58.5995 39.9614 60.1071 42.4429 61.6062C43.1589 62.0533 43.3316 63.107 42.8745 64.0113C42.6951 64.3716 42.5225 64.7302 42.3566 65.1025C42.6951 65.2571 43.0354 65.4118 43.3739 65.5614C43.5652 65.133 43.77 64.7183 43.9731 64.3087C43.985 64.29 44.0036 64.2849 44.0171 64.29C44.8567 64.7302 45.6895 65.1704 46.5291 65.6107C46.5477 65.6175 46.5545 65.6361 46.541 65.6548C46.3564 66.0135 46.177 66.3789 46.0111 66.7579C46.3378 66.9058 46.6645 67.0554 46.998 67.2032C54.2512 51.0751 77.0622 51.0751 84.3171 67.2032C84.6438 67.0554 84.9705 66.9058 85.304 66.7579C85.1381 66.3789 84.9587 66.0135 84.7725 65.6548C84.7674 65.6361 84.7725 65.6175 84.786 65.6107C85.6256 65.1704 86.4584 64.7302 87.298 64.29C87.3166 64.2849 87.3352 64.29 87.342 64.3087C87.5519 64.7183 87.7482 65.133 87.9463 65.5614C88.2865 65.4067 88.6251 65.252 88.9653 65.1025C88.7368 64.5943 88.4964 64.1047 88.2493 63.6203C87.7855 62.728 87.9395 61.681 88.6505 61.2153C91.1066 59.672 93.5695 58.1236 96.0273 56.5786C96.7365 56.1214 97.9468 56.7537 98.6391 58.0794C99.0031 58.7797 99.3551 59.4987 99.6886 60.2431C100.027 60.0884 100.367 59.9321 100.706 59.7842C100.405 59.1145 100.09 58.4568 99.7614 57.8194C99.7495 57.7888 99.7495 57.7633 99.7614 57.7514C100.601 57.3112 101.435 56.871 102.275 56.4308C102.275 56.424 102.299 56.4427 102.317 56.4732ZM36.3796 50.4853C35.6636 49.8666 34.9425 49.2463 34.2248 48.6327C34.213 48.6208 34.2197 48.5885 34.2383 48.5647C35.0525 47.5976 35.904 46.6798 36.7876 45.8129C36.813 45.7874 36.8367 45.7807 36.8485 45.7942C37.5104 46.4758 38.1637 47.1642 38.8256 47.8457C38.8374 47.8576 38.8307 47.8831 38.807 47.9069C37.986 48.7126 37.1955 49.5692 36.4355 50.4666C36.4169 50.4853 36.3932 50.4989 36.3796 50.4853ZM40.5589 46.2464C39.9428 45.5206 39.3249 44.8016 38.7139 44.0759C38.702 44.064 38.7139 44.0334 38.7376 44.0147C39.6635 43.2142 40.6266 42.4646 41.6084 41.7575C41.6338 41.7388 41.6643 41.7388 41.671 41.7524C42.2195 42.5275 42.7696 43.3008 43.3197 44.0827C43.3316 44.0946 43.3197 44.1201 43.2943 44.1388C42.3803 44.7897 41.4848 45.49 40.6266 46.2345C40.5962 46.2583 40.5725 46.2583 40.5589 46.2464ZM45.2257 42.8113C44.7264 42.0057 44.227 41.2001 43.7209 40.3876C43.7074 40.3757 43.726 40.3451 43.7514 40.3332C44.7704 39.7009 45.8131 39.118 46.8744 38.5775C46.8998 38.5656 46.9303 38.5656 46.937 38.5843C47.3619 39.4341 47.7952 40.2822 48.2201 41.1321C48.2269 41.1508 48.215 41.1695 48.1896 41.1814C47.2028 41.6777 46.2329 42.2232 45.2816 42.8113C45.263 42.8249 45.2393 42.8249 45.2257 42.8113ZM61.1592 37.2942C61.0492 36.3526 60.9374 35.411 60.8274 34.4677C60.8274 34.449 60.8443 34.432 60.8765 34.432C62.0428 34.3011 63.2158 34.2144 64.3889 34.1838C64.4193 34.1838 64.4447 34.1957 64.4447 34.2144C64.4684 35.1628 64.5006 36.1113 64.5243 37.0597C64.5243 37.0784 64.5057 37.0903 64.4752 37.0903C63.3817 37.1209 62.2967 37.2024 61.21 37.3265C61.1846 37.3197 61.1592 37.3078 61.1592 37.2942ZM66.7722 37.0529C66.7959 36.1045 66.8264 35.156 66.8518 34.2076C66.8518 34.1889 66.8772 34.177 66.9076 34.177C68.0807 34.2144 69.2537 34.2943 70.4132 34.4252C70.4454 34.432 70.464 34.4439 70.464 34.4626C70.3523 35.4042 70.2406 36.3458 70.1305 37.2891C70.1305 37.3078 70.1051 37.3197 70.0747 37.3129C68.988 37.1888 67.9012 37.1158 66.8094 37.0784C66.7908 37.0835 66.7722 37.0716 66.7722 37.0529ZM83.0696 41.1253C83.4945 40.2771 83.9278 39.4273 84.3527 38.5775C84.3594 38.5588 84.3899 38.5588 84.4153 38.5724C85.4766 39.1044 86.5193 39.6941 87.5384 40.3264C87.5637 40.3451 87.5756 40.3638 87.5688 40.3825C87.0695 41.1882 86.5701 41.9938 86.064 42.8062C86.0505 42.8181 86.0268 42.8249 86.0081 42.8062C85.0568 42.2165 84.0886 41.6709 83.1001 41.1763C83.0747 41.1695 83.0628 41.144 83.0696 41.1253ZM87.9835 44.0895C88.532 43.3144 89.0821 42.5394 89.6322 41.7575C89.6441 41.7456 89.6678 41.7456 89.6932 41.7643C90.6749 42.4646 91.6381 43.2142 92.564 44.0147C92.5894 44.0334 92.5945 44.064 92.5894 44.0759C91.9716 44.8016 91.3537 45.5206 90.7426 46.2464C90.7308 46.2583 90.7054 46.2515 90.6817 46.2345C89.8167 45.49 88.9281 44.7897 88.014 44.1388C87.9835 44.1269 87.9768 44.1014 87.9835 44.0895ZM92.4709 47.8389C93.1311 47.1574 93.7861 46.469 94.4463 45.7874C94.4598 45.7756 94.4903 45.7807 94.5089 45.8061C95.3908 46.673 96.2439 47.5908 97.0581 48.5579C97.0768 48.5834 97.0835 48.614 97.07 48.6259C96.354 49.2463 95.6329 49.8666 94.9152 50.4802C94.9033 50.4921 94.8796 50.4802 94.8542 50.4615C94.0942 49.5624 93.3054 48.7075 92.4844 47.9018C92.4658 47.8831 92.4591 47.8508 92.4709 47.8389ZM100.923 54.0376C100.113 54.5339 99.3111 55.0302 98.502 55.5248C98.4902 55.5316 98.4665 55.5197 98.4479 55.4942C97.8114 54.4404 97.1377 53.4308 96.4352 52.4688C96.4166 52.445 96.4166 52.4144 96.4285 52.4076C97.1817 51.8366 97.9417 51.2672 98.6933 50.691C98.7068 50.6774 98.7373 50.691 98.7559 50.7216C99.516 51.7567 100.244 52.8411 100.923 53.9764C100.934 53.9951 100.941 54.0257 100.923 54.0376ZM84.0751 64.3716C84.0632 64.3767 84.0378 64.3767 84.0328 64.358C83.6739 63.7699 83.2981 63.1988 82.902 62.66C82.8902 62.6481 82.8969 62.6294 82.9088 62.6175C83.662 62.0465 84.4221 61.4771 85.1736 60.8992C85.1872 60.8873 85.2109 60.8941 85.2176 60.906C85.6679 61.5196 86.0945 62.1586 86.5024 62.8334C86.5143 62.8521 86.5075 62.8708 86.4956 62.8827C85.6933 63.379 84.8842 63.8753 84.0751 64.3716ZM84.224 59.6856C83.508 60.3043 82.7852 60.9247 82.0692 61.5383C82.0574 61.5502 82.0387 61.5502 82.0252 61.5383C81.6003 61.0369 81.1551 60.5592 80.6981 60.1003C80.6863 60.0884 80.6863 60.0697 80.6981 60.0561C81.36 59.3746 82.0134 58.6862 82.6735 58.0046C82.687 57.9928 82.7057 57.9928 82.7243 58.0046C83.249 58.5196 83.7484 59.0652 84.2291 59.6346C84.2359 59.6533 84.2359 59.6788 84.224 59.6856ZM81.5699 57.0001C80.952 57.7259 80.3342 58.4449 79.7231 59.1706C79.7113 59.1825 79.6926 59.1893 79.6808 59.1774C79.1984 58.761 78.699 58.3701 78.1861 58.0046C78.1743 57.9995 78.1743 57.9741 78.1794 57.9622C78.7295 57.1871 79.2796 56.4121 79.8281 55.637C79.8399 55.6251 79.8585 55.6183 79.8721 55.6302C80.451 56.0466 81.0197 56.4919 81.5699 56.9645C81.5817 56.9645 81.5817 56.9882 81.5699 57.0001ZM78.6059 54.8195C78.1066 55.6251 77.6055 56.4308 77.0994 57.2432C77.0876 57.2551 77.0757 57.2619 77.0571 57.2551C76.5256 56.9271 75.9822 56.6228 75.427 56.3441C75.4135 56.3373 75.4084 56.3186 75.4135 56.2999C75.84 55.4517 76.2717 54.6019 76.6982 53.7521C76.705 53.7334 76.7236 53.7283 76.7423 53.7402C77.3719 54.0563 77.9881 54.4031 78.5941 54.7753C78.6127 54.7821 78.6178 54.8008 78.6059 54.8195ZM68.4937 51.3165C68.3837 52.2581 68.2719 53.2014 68.1602 54.143C68.1602 54.1617 68.1416 54.1736 68.1298 54.1736C67.5255 54.1056 66.9144 54.0631 66.3016 54.0444C66.2847 54.0444 66.2712 54.0308 66.2779 54.0138C66.3016 53.0654 66.3338 52.117 66.3575 51.1686C66.3575 51.1499 66.371 51.1363 66.3897 51.1363C67.0803 51.155 67.7709 51.2043 68.4632 51.2859C68.4886 51.2859 68.5005 51.2978 68.4937 51.3165ZM64.9373 51.1618C64.9627 52.1102 64.9932 53.0586 65.0186 54.007C65.0186 54.0257 65.0067 54.0376 64.9932 54.0376C64.3821 54.0563 63.771 54.1005 63.1667 54.1685C63.1481 54.1685 63.1363 54.1549 63.1363 54.1362C63.0245 53.1946 62.9128 52.253 62.8028 51.3097C62.8028 51.291 62.8147 51.2791 62.8333 51.274C63.5239 51.1924 64.2162 51.1431 64.9068 51.1244C64.9204 51.1312 64.9373 51.1499 64.9373 51.1618ZM54.5915 53.7521C55.018 54.6019 55.4497 55.4517 55.8762 56.2999C55.8813 56.3186 55.8813 56.3373 55.8627 56.3441C55.3075 56.6228 54.7641 56.9271 54.2326 57.2551C54.2208 57.2619 54.2022 57.2551 54.1903 57.2432C53.691 56.4376 53.1899 55.6302 52.6838 54.8195C52.677 54.8059 52.677 54.7821 52.6956 54.7753C53.3016 54.4031 53.9178 54.0563 54.5424 53.7402C54.561 53.7283 54.5847 53.7334 54.5915 53.7521ZM51.4735 55.6302C52.0236 56.4053 52.5721 57.1803 53.1222 57.9554C53.1341 57.9673 53.129 57.986 53.1154 57.9995C52.6042 58.365 52.1032 58.7559 51.6225 59.1706C51.6106 59.1825 51.592 59.1774 51.5785 59.1638C50.9623 58.4398 50.3445 57.7191 49.7334 56.995C49.7216 56.9814 49.7216 56.9577 49.7385 56.9509C50.2886 56.48 50.8574 56.033 51.4363 55.6183C51.443 55.6115 51.4617 55.6115 51.4735 55.6302ZM48.6281 58.0114C49.2882 58.693 49.9433 59.3814 50.6035 60.0629C50.6153 60.0748 50.6153 60.0935 50.6035 60.1071C50.1413 60.5592 49.7029 61.0369 49.2764 61.5451C49.2645 61.5569 49.2459 61.5569 49.2324 61.5451C48.5163 60.9247 47.7952 60.3043 47.0792 59.6907C47.0657 59.6788 47.0657 59.6601 47.0792 59.6414C47.56 59.072 48.0661 58.5264 48.5841 58.0114C48.5908 57.9995 48.6162 57.9995 48.6281 58.0114ZM34.868 52.4008C34.8799 52.4144 34.8799 52.4382 34.8613 52.4637C34.152 53.424 33.4783 54.4353 32.8486 55.4891C32.83 55.5129 32.8063 55.5316 32.7928 55.5197C31.9854 55.0234 31.1813 54.5271 30.3739 54.0308C30.3604 54.0257 30.3604 53.9951 30.379 53.9628C31.0594 52.8292 31.7805 51.7448 32.5456 50.7097C32.5643 50.6842 32.5964 50.6723 32.6083 50.6774C33.3548 51.2553 34.1148 51.8315 34.868 52.4008ZM53.4675 38.9684C53.4743 38.9871 53.4557 39.0058 53.4303 39.0126C52.3876 39.3525 51.3567 39.7434 50.3445 40.1769C50.3191 40.1904 50.2954 40.1836 50.2886 40.165C49.9128 39.2913 49.5354 38.4228 49.1596 37.5492C49.1528 37.5305 49.1646 37.5118 49.1968 37.4999C50.2886 37.0342 51.3939 36.6194 52.5179 36.2472C52.5484 36.2353 52.5721 36.2404 52.5788 36.2591C52.87 37.165 53.1713 38.0693 53.4675 38.9684ZM56.2148 50.1199C56.4992 50.9204 56.054 51.8128 55.2466 52.1663C51.5598 53.7844 48.2015 56.3135 45.5473 59.74C44.9617 60.4913 43.9545 60.7751 43.2503 60.3043C40.8551 58.6624 38.46 57.0137 36.0597 55.3702C35.3555 54.8994 35.43 53.5294 36.3001 52.4076C40.1764 47.3987 45.0717 43.7105 50.4562 41.3428C51.6597 40.8091 52.9005 41.1066 53.1848 41.9071C54.1971 44.6538 55.2025 47.3868 56.2148 50.1199ZM55.8999 53.1453C55.8949 53.1266 55.8999 53.1079 55.9186 53.1011C56.5601 52.8292 57.2152 52.581 57.8821 52.3635C57.9007 52.3584 57.9193 52.3703 57.9244 52.3822C58.2206 53.2813 58.5236 54.1872 58.8199 55.0846C58.8266 55.1033 58.8199 55.122 58.8012 55.122C58.2156 55.3141 57.6417 55.5316 57.073 55.773C57.0611 55.7798 57.0425 55.773 57.0357 55.7543C56.6532 54.8875 56.2774 54.0138 55.8999 53.1453ZM46.1161 60.906C46.8693 61.4771 47.6277 62.0465 48.3809 62.6226C48.3928 62.6362 48.3995 62.6549 48.3877 62.6668C47.9916 63.2056 47.6158 63.7699 47.257 64.3648C47.2519 64.3767 47.2265 64.3835 47.2146 64.3767C46.4055 63.8821 45.6032 63.3858 44.7941 62.8895C44.7822 62.8827 44.7755 62.8589 44.789 62.8402C45.1902 62.1705 45.615 61.5264 46.0653 60.9179C46.0788 60.8992 46.1025 60.8941 46.1161 60.906ZM57.5232 49.6797C56.6532 46.8973 55.7831 44.1201 54.9131 41.336C54.6473 40.5304 55.4497 39.5514 56.7209 39.2471C62.3949 37.884 68.3397 37.8398 74.0322 39.1231C75.3035 39.4086 76.1244 40.3757 75.8705 41.1882C75.0445 43.9841 74.2167 46.7733 73.3839 49.5692C73.13 50.3799 72.2413 50.8338 71.3899 50.6417C67.4933 49.7613 63.4189 49.7919 59.5359 50.7284C58.6844 50.9323 57.789 50.4921 57.5232 49.6797ZM61.3877 51.5204C61.5553 52.4569 61.7161 53.3935 61.882 54.3232C61.882 54.3419 61.8769 54.3538 61.8583 54.3606C61.2523 54.4659 60.6531 54.5951 60.0606 54.7515C60.0488 54.7566 60.0301 54.7447 60.0234 54.726C59.7779 53.8082 59.5308 52.8904 59.2837 51.9742C59.2769 51.9555 59.2887 51.9368 59.3074 51.9368C59.9811 51.7567 60.6598 51.6139 61.3454 51.4898C61.3691 51.4898 61.3826 51.5017 61.3877 51.5204ZM72.0061 51.9742C71.7589 52.8904 71.5135 53.8082 71.2663 54.726C71.2596 54.7447 71.2477 54.7515 71.2291 54.7515C70.6367 54.5951 70.0374 54.4659 69.4331 54.3606C69.4196 54.3606 69.4077 54.3419 69.4077 54.3232C69.5736 53.3867 69.7344 52.4501 69.902 51.5204C69.902 51.5017 69.9206 51.4898 69.9393 51.4966C70.6231 51.6139 71.3036 51.7635 71.9756 51.9419C72.001 51.9419 72.0061 51.9606 72.0061 51.9742ZM73.3772 52.3822C73.3839 52.3635 73.4025 52.3584 73.4195 52.3635C74.0813 52.581 74.7347 52.8292 75.383 53.1011C75.4016 53.1079 75.4084 53.1266 75.4016 53.1453C75.0259 54.0189 74.6484 54.8875 74.2726 55.7611C74.2658 55.7798 74.2472 55.7866 74.2354 55.7798C73.6666 55.5384 73.0877 55.3209 72.5071 55.1288C72.4936 55.122 72.4817 55.1033 72.4885 55.0914C72.7779 54.1872 73.0742 53.2813 73.3772 52.3822ZM80.3291 41.1321C85.7424 43.413 90.6868 47.0146 94.6257 51.9419C95.5093 53.0467 95.6007 54.4099 94.9033 54.8875C92.5335 56.5735 90.162 58.2528 87.7923 59.9389C87.0949 60.4233 86.0826 60.1615 85.4885 59.4188C82.792 56.0466 79.4015 53.5736 75.6979 52.0116C74.8837 51.6632 74.4266 50.7828 74.6975 49.9771C75.6674 47.2322 76.6373 44.4787 77.6055 41.7337C77.8831 40.94 79.1188 40.6239 80.3291 41.1321ZM81.0079 40.1718C81.0011 40.1904 80.9757 40.1904 80.9453 40.1836C79.933 39.7502 78.9022 39.3661 77.8594 39.0177C77.8341 39.0126 77.8154 38.9871 77.8222 38.9752C78.1184 38.0761 78.4214 37.1718 78.7176 36.2727C78.7227 36.254 78.7481 36.2472 78.7786 36.2591C79.9025 36.6262 81.0079 37.0478 82.0997 37.5118C82.1301 37.5237 82.1437 37.5492 82.1369 37.5611C81.7662 38.4228 81.3837 39.2964 81.0079 40.1718ZM75.6674 38.331C75.6606 38.348 75.6369 38.3548 75.6115 38.348C74.5502 38.0693 73.4821 37.8398 72.4072 37.6477C72.3835 37.6426 72.3581 37.624 72.3649 37.6104C72.5308 36.6755 72.6916 35.739 72.8592 34.8093C72.8643 34.7906 72.8897 34.7838 72.9201 34.7838C74.0813 34.9895 75.229 35.2376 76.3648 35.5351C76.3953 35.5402 76.4139 35.5589 76.4088 35.5776C76.1549 36.4954 75.9077 37.4132 75.6674 38.331ZM58.9383 37.6104C58.9434 37.6291 58.9197 37.6477 58.8943 37.6477C57.8195 37.8347 56.7463 38.0693 55.69 38.348C55.6663 38.3548 55.641 38.348 55.6342 38.331C55.387 37.4132 55.1416 36.4954 54.8945 35.5776C54.8877 35.5589 54.9063 35.5402 54.9368 35.5351C56.0726 35.2376 57.227 34.9827 58.3814 34.7838C58.4136 34.7787 58.4373 34.7906 58.4441 34.8093C58.6049 35.739 58.7708 36.6755 58.9383 37.6104Z" fill="white"/>
</g>
<path d="M31.5522 76.687H99.743V78.1997H31.5522V76.687Z" fill="white"/>
<path d="M38.6516 79.415H92.6439V80.9277H38.6516V79.415Z" fill="white"/>
<mask id="mask2_1_2354" style="mask-type:luminance" maskUnits="userSpaceOnUse" x="45" y="81" width="41" height="3">
<path d="M45.5 81.8018H85.8V83.7377H45.5V81.8018Z" fill="white"/>
</mask>
<g mask="url(#mask2_1_2354)">
<path d="M45.7505 82.1436H85.5444V83.6563H45.7505V82.1436Z" fill="white"/>
</g>
<mask id="mask3_1_2354" style="mask-type:luminance" maskUnits="userSpaceOnUse" x="20" y="96" width="6" height="6">
<path d="M20.3818 96.4746H25.5429V101.657H20.3818V96.4746Z" fill="white"/>
</mask>
<g mask="url(#mask3_1_2354)">
<mask id="mask4_1_2354" style="mask-type:luminance" maskUnits="userSpaceOnUse" x="20" y="96" width="6" height="6">
<path d="M22.9615 96.4746C21.538 96.4746 20.3818 97.6355 20.3818 99.0666C20.3818 100.496 21.538 101.657 22.9615 101.657C24.3868 101.657 25.5429 100.496 25.5429 99.0666C25.5429 97.6355 24.3868 96.4746 22.9615 96.4746Z" fill="white"/>
</mask>
<g mask="url(#mask4_1_2354)">
<mask id="mask5_1_2354" style="mask-type:luminance" maskUnits="userSpaceOnUse" x="20" y="96" width="6" height="6">
<path d="M25.5667 96.1602H20.3667V101.817H25.5667V96.1602Z" fill="white"/>
</mask>
<g mask="url(#mask5_1_2354)">
<mask id="mask6_1_2354" style="mask-type:luminance" maskUnits="userSpaceOnUse" x="20" y="96" width="6" height="6">
<path d="M20.3818 96.4746H25.5429V101.657H20.3818V96.4746Z" fill="white"/>
</mask>
<g mask="url(#mask6_1_2354)">
<mask id="mask7_1_2354" style="mask-type:luminance" maskUnits="userSpaceOnUse" x="20" y="96" width="6" height="6">
<path d="M22.9615 96.4746C21.538 96.4746 20.3818 97.6355 20.3818 99.0666C20.3818 100.496 21.538 101.657 22.9615 101.657C24.3868 101.657 25.5429 100.496 25.5429 99.0666C25.5429 97.6355 24.3868 96.4746 22.9615 96.4746Z" fill="white"/>
</mask>
<g mask="url(#mask7_1_2354)">
<path d="M20.3818 96.4746H25.5429V101.657H20.3818V96.4746Z" fill="white"/>
</g>
</g>
</g>
</g>
</g>
<path d="M26.1896 41.6776L10.8808 40.6238L20.123 47.0826L21.8021 45.4849L22.9803 46.3075L19.2969 51.6241L18.1188 50.8014L18.8907 48.857L8.28755 41.4465L6.7438 42.847L5.66724 42.0992L8.42974 37.8908L23.8943 39.0534L14.4964 32.4858L12.9527 33.8864L11.8761 33.1385L15.3224 27.9443L16.5006 28.767L15.7287 30.7114L27.8959 39.2165L26.1896 41.6776Z" fill="white"/>
<path d="M24.0481 26.5355C25.0468 24.9905 26.12 23.7871 27.271 22.9254C28.3916 22.0824 29.4208 21.6659 30.3585 21.6744C31.2963 21.6795 32.1663 22.2183 32.9653 23.2925L37.3325 29.1598L39.1538 28.3847L39.9392 29.4453L37.0413 31.7705L35.6398 30.7303C35.3825 32.5166 34.7562 33.7829 33.7642 34.5307C32.7655 35.2786 31.8312 35.5913 30.9611 35.4689C30.0894 35.3432 29.3124 34.8163 28.6252 33.8916C27.1491 31.9064 27.8804 29.8124 30.8189 27.6097L32.3491 26.4607L31.1981 24.9174C30.345 23.7718 29.3124 23.6512 28.0971 24.5571C27.4064 25.0789 26.8902 25.5735 26.5465 26.0392L26.3705 26.2975L27.1762 27.9292L25.9304 28.8674L24.0481 26.5355ZM33.2767 27.7117L31.9361 28.7179C30.978 29.4351 30.3924 30.0691 30.1757 30.6215C29.9624 31.1705 30.0504 31.7076 30.4398 32.2328C30.8088 32.7325 31.2116 33.0248 31.645 33.1098C32.0783 33.1965 32.515 33.0724 32.9585 32.7359C33.1752 32.5727 33.3665 32.3721 33.534 32.1308C33.705 31.886 33.8523 31.6277 33.9741 31.3557C34.096 31.0804 34.1874 30.8118 34.2517 30.5535C34.3195 30.2952 34.3618 30.0691 34.3804 29.8736L34.421 29.2482L33.2767 27.7117Z" fill="white"/>
<path d="M40.6911 15.4384L41.551 16.9817C42.1418 15.3058 43.0034 14.2333 44.1375 13.7659C44.7418 13.5178 45.3596 13.3648 45.9927 13.3104L46.2635 13.2832L47.4687 16.5466L46.0333 17.138L45.0245 15.6083C43.7549 16.1301 42.9204 17.1448 42.5193 18.6541L45.2073 25.2556L47.6448 24.8953L48.139 26.1191L41.8354 28.7162L41.3411 27.4924L42.9932 26.1667L39.6417 17.9471L37.5765 18.2802L37.0823 17.0565L40.6911 15.4384Z" fill="white"/>
<path d="M54.5765 11.3851L55.0572 13.0916C56.022 11.5925 57.1088 10.746 58.314 10.5557C58.964 10.452 59.6004 10.4469 60.2233 10.5421L60.4942 10.5761L60.914 14.0298L59.377 14.2745L58.7473 12.5545C57.3965 12.7686 56.3521 13.5607 55.6124 14.934L56.716 21.9774L59.1739 22.2018L59.377 23.5071L52.6468 24.5677L52.4437 23.2624L54.3598 22.3513L52.9853 13.5811L50.8999 13.4247L50.6968 12.1261L54.5765 11.3851Z" fill="white"/>
<path d="M65.9639 11.051C67.7379 10.5853 69.3375 10.4187 70.7644 10.5547C72.1592 10.6906 73.1986 11.0782 73.8858 11.7172C74.5764 12.3563 74.8574 13.3455 74.7322 14.6815L74.0212 21.9696L75.89 22.6291L75.7613 23.9412L72.0577 23.7033L71.7191 21.9832C70.3277 23.1288 69.0176 23.6438 67.7853 23.5265C66.5428 23.4041 65.6423 23.003 65.0837 22.3231C64.5234 21.6399 64.3 20.7238 64.4134 19.5765C64.6521 17.112 66.5953 16.0582 70.2431 16.4151L72.1457 16.5987L72.3285 14.6815C72.4673 13.2537 71.7868 12.4685 70.2837 12.3223C69.4255 12.2373 68.7095 12.2543 68.1374 12.3767L67.8394 12.4379L67.3384 14.1987L65.7879 14.0424L65.9639 11.051ZM71.9967 18.1488L70.3311 17.9856C69.1428 17.8734 68.2829 17.9482 67.7514 18.21C67.2233 18.4683 66.9271 18.9238 66.8644 19.5765C66.8052 20.1986 66.9068 20.6881 67.1691 21.045C67.4298 21.3985 67.8361 21.6025 68.3879 21.6569C68.6587 21.6841 68.9363 21.6637 69.2207 21.5957C69.5085 21.5277 69.7911 21.4359 70.067 21.3169C70.3413 21.1997 70.5901 21.0688 70.8118 20.9226C71.037 20.7731 71.2181 20.6337 71.3535 20.5011L71.8072 20.0592L71.9967 18.1488Z" fill="white"/>
<path d="M87.0874 10.9972L85.9363 14.3081L89.1999 15.4503L88.6108 17.1568L85.3473 16.0146L82.8217 23.2824C82.5001 24.2036 82.7151 24.7934 83.465 25.0568C83.9423 25.2234 84.5923 25.2421 85.415 25.1112L85.6113 26.5253C84.3249 26.9197 83.1417 26.9265 82.0634 26.5457C81.2949 26.2772 80.7583 25.8064 80.452 25.1316C80.1439 24.462 80.1964 23.5373 80.6077 22.3578L83.0858 15.226L80.8311 14.4305L81.3457 12.9484L83.6749 13.5195L84.6702 10.6641L87.0874 10.9972Z" fill="white"/>
<path d="M99.1321 14.1549C100.029 14.6818 100.178 15.4603 99.579 16.4937C99.3302 16.9254 98.9849 17.1701 98.5431 17.2279C98.0996 17.2874 97.7069 17.2143 97.365 17.0104C96.9943 16.7979 96.7657 16.4937 96.6811 16.0994C96.5948 15.7016 96.6845 15.275 96.9519 14.8212C97.2126 14.364 97.5444 14.0836 97.9473 13.9782C98.3484 13.8745 98.7428 13.934 99.1321 14.1549ZM97.4394 19.6891L92.0363 29.0304L93.2889 30.4513L92.6321 31.5935L87.2561 28.4593L87.9129 27.3172L89.9712 27.8271L94.4129 20.1514L92.903 18.71L93.5597 17.5679L97.4394 19.6891Z" fill="white"/>
<path d="M106.624 26.5667L105.642 27.6205L104.268 26.6483L100.307 35.0854L108.35 30.6459L107.389 29.259L108.289 28.2936L112.284 31.8765L111.302 32.9303L110.185 32.196L99.704 37.4854L97.7878 35.6837L102.345 25.0098L101.715 23.9356L102.615 22.9702L106.624 26.5667Z" fill="white"/>
<path d="M115.139 48.2984L110.752 41.2822C109.641 41.9706 108.918 42.7915 108.585 43.7433C108.255 44.6951 108.368 45.6197 108.923 46.5172C109.103 46.8112 109.313 47.0916 109.553 47.3602C109.792 47.627 110.034 47.8667 110.278 48.0809C110.521 48.2984 110.762 48.4837 111.002 48.6383C111.241 48.7913 111.451 48.9137 111.632 49.0055L112.153 49.2502L111.53 50.6168C110.88 50.3856 110.328 50.1408 109.878 49.8825C109.431 49.6241 108.961 49.2842 108.47 48.8627C107.977 48.4412 107.544 47.9245 107.17 47.3126C106.181 45.7081 105.914 44.1886 106.371 42.7575C106.826 41.3298 107.894 40.0958 109.573 39.0522C110.416 38.5321 111.266 38.1752 112.119 37.9848C112.976 37.7911 113.795 37.7571 114.577 37.8829C115.357 38.0103 116.077 38.2908 116.737 38.7259C117.401 39.1576 117.957 39.7423 118.409 40.4799C120.17 43.3354 119.459 45.7506 116.277 47.7273L115.139 48.2984ZM112.329 40.4188L115.342 45.3206C116.172 44.8039 116.737 44.2073 117.035 43.5325C117.333 42.8612 117.238 42.132 116.751 41.3434C116.272 40.5683 115.628 40.1128 114.821 39.9768C114.017 39.8375 113.186 39.9836 112.329 40.4188Z" fill="white"/>
<path d="M36.2305 107.095V105.654L38.1872 105.198L43.6378 90.4178L46.0279 90.2954L51.3362 105.198L53.3201 105.654V107.095H46.3867V105.654L48.6076 105.198L47.7003 102.533H41.4846L40.557 105.198L42.7982 105.654V107.095H36.2305ZM44.6398 93.3888L42.1346 100.616H47.057L44.6398 93.3888Z" fill="white"/>
<path d="M59.7939 107.095V105.654L61.8252 105.178V92.2126L59.7939 91.7367V90.4178L64.3372 90.2954H66.9643C68.6519 90.2954 69.9705 90.6812 70.9184 91.4512C71.8663 92.2177 72.3403 93.2715 72.3403 94.6126C72.3403 96.9649 71.3061 98.5269 69.2393 99.2968C69.6184 99.6334 70.0941 100.351 70.6679 101.452L72.557 105.273L74.2564 105.654V107.095H70.6679L68.6367 102.655C68.0814 101.455 67.6007 100.675 67.1945 100.317C66.7882 99.9546 66.1941 99.7727 65.4137 99.7727H64.3372V105.178L66.3684 105.654V107.095H59.7939ZM64.3372 92.2126V97.9779H66.1314C67.2909 97.9779 68.1982 97.7162 68.8533 97.1893C69.5067 96.659 69.8351 95.9621 69.8351 95.0953C69.8351 94.2165 69.5541 93.5163 68.9955 92.9945C68.4403 92.4744 67.7243 92.2126 66.8492 92.2126H64.3372Z" fill="white"/>
<path d="M92.2092 95.313L91.5592 92.5731C90.701 92.257 89.6803 92.0972 88.4988 92.0972C86.8738 92.0972 85.6297 92.6887 84.7681 93.8717C83.9099 95.0546 83.4816 96.7118 83.4816 98.8415C83.4816 100.986 83.9454 102.579 84.8764 103.621C85.8108 104.659 87.0583 105.178 88.6207 105.178C88.9728 105.178 89.3519 105.137 89.7582 105.055C90.1644 104.974 90.5571 104.858 90.9363 104.709C91.3189 104.556 91.6693 104.394 91.9858 104.226C92.3057 104.059 92.5698 103.896 92.778 103.737L93.4009 103.254L94.3556 104.818C94.0069 105.168 93.6057 105.494 93.1504 105.797C92.6933 106.101 92.2058 106.371 91.6879 106.606C91.1733 106.837 90.635 107.017 90.0764 107.143C89.5212 107.268 88.9558 107.333 88.3837 107.333C85.9462 107.333 84.0605 106.626 82.7301 105.212C81.3979 103.794 80.7327 101.724 80.7327 99.0047C80.7327 97.6449 80.9189 96.4144 81.2946 95.313C81.6687 94.2082 82.2053 93.2666 82.9061 92.4915C83.6103 91.7165 84.4515 91.1182 85.4316 90.6967C86.41 90.2718 87.5137 90.0576 88.7426 90.0576C89.1082 90.0576 89.5094 90.0848 89.9478 90.1392C90.3845 90.1936 90.8144 90.2718 91.2342 90.3704C91.6574 90.4655 92.0569 90.5658 92.4327 90.6695C92.8068 90.7749 93.1131 90.8735 93.3535 90.9686L94.1186 91.2542L93.9967 95.313H92.2092Z" fill="white"/>
<mask id="mask8_1_2354" style="mask-type:luminance" maskUnits="userSpaceOnUse" x="105" y="96" width="6" height="6">
<path d="M105.771 96.4746H110.932V101.657H105.771V96.4746Z" fill="white"/>
</mask>
<g mask="url(#mask8_1_2354)">
<mask id="mask9_1_2354" style="mask-type:luminance" maskUnits="userSpaceOnUse" x="105" y="96" width="6" height="6">
<path d="M108.352 96.4746C106.927 96.4746 105.771 97.6355 105.771 99.0666C105.771 100.496 106.927 101.657 108.352 101.657C109.776 101.657 110.932 100.496 110.932 99.0666C110.932 97.6355 109.776 96.4746 108.352 96.4746Z" fill="white"/>
</mask>
<g mask="url(#mask9_1_2354)">
<mask id="mask10_1_2354" style="mask-type:luminance" maskUnits="userSpaceOnUse" x="105" y="96" width="6" height="6">
<path d="M110.933 96.1602H105.733V101.817H110.933V96.1602Z" fill="white"/>
</mask>
<g mask="url(#mask10_1_2354)">
<mask id="mask11_1_2354" style="mask-type:luminance" maskUnits="userSpaceOnUse" x="105" y="96" width="6" height="6">
<path d="M105.771 96.4746H110.932V101.657H105.771V96.4746Z" fill="white"/>
</mask>
<g mask="url(#mask11_1_2354)">
<mask id="mask12_1_2354" style="mask-type:luminance" maskUnits="userSpaceOnUse" x="105" y="96" width="6" height="6">
<path d="M108.352 96.4746C106.927 96.4746 105.771 97.6355 105.771 99.0666C105.771 100.496 106.927 101.657 108.352 101.657C109.775 101.657 110.932 100.496 110.932 99.0666C110.932 97.6355 109.775 96.4746 108.352 96.4746Z" fill="white"/>
</mask>
<g mask="url(#mask12_1_2354)">
<path d="M105.771 96.4746H110.932V101.657H105.771V96.4746Z" fill="white"/>
</g>
</g>
</g>
</g>
</g>
</g>
</svg>
