<svg width="56" height="56" viewBox="0 0 56 56" fill="none" xmlns="http://www.w3.org/2000/svg">
<circle opacity="0.5" cx="28" cy="28" r="28" fill="white"/>
<path d="M35.376 28.4161L24.777 35.4821C24.7017 35.5322 24.6142 35.5609 24.5239 35.5652C24.4336 35.5696 24.3437 35.5493 24.264 35.5066C24.1843 35.4639 24.1176 35.4004 24.0711 35.3228C24.0246 35.2452 24 35.1565 24 35.0661V20.9341C24 20.8436 24.0246 20.7549 24.0711 20.6773C24.1176 20.5997 24.1843 20.5362 24.264 20.4935C24.3437 20.4508 24.4336 20.4306 24.5239 20.4349C24.6142 20.4392 24.7017 20.468 24.777 20.5181L35.376 27.5841C35.4445 27.6297 35.5006 27.6916 35.5395 27.7642C35.5783 27.8367 35.5986 27.9178 35.5986 28.0001C35.5986 28.0824 35.5783 28.1634 35.5395 28.236C35.5006 28.3085 35.4445 28.3704 35.376 28.4161Z" fill="#CC9145"/>
</svg>
