<svg width="96" height="16" viewBox="0 0 96 16" fill="none" xmlns="http://www.w3.org/2000/svg">
<path d="M7.13589 1.48359C7.52162 0.821322 8.47838 0.821321 8.86411 1.48359L10.3645 4.05954C10.5058 4.30214 10.7425 4.47417 11.0169 4.53359L13.9304 5.1645C14.6795 5.3267 14.9752 6.23663 14.4645 6.80814L12.4783 9.03107C12.2912 9.24043 12.2008 9.51877 12.229 9.7981L12.5293 12.764C12.6065 13.5265 11.8325 14.0889 11.1312 13.7798L8.40325 12.5777C8.14634 12.4645 7.85366 12.4645 7.59675 12.5777L4.86883 13.7798C4.16749 14.0889 3.39346 13.5265 3.47067 12.764L3.77096 9.7981C3.79924 9.51878 3.7088 9.24043 3.52174 9.03107L1.5355 6.80814C1.02484 6.23663 1.3205 5.3267 2.06955 5.1645L4.98306 4.53359C5.25745 4.47417 5.49423 4.30214 5.63553 4.05954L7.13589 1.48359Z" fill="#FFC107"/>
<path d="M27.1359 1.48359C27.5216 0.821322 28.4784 0.821321 28.8641 1.48359L30.3645 4.05954C30.5058 4.30214 30.7425 4.47417 31.0169 4.53359L33.9304 5.1645C34.6795 5.3267 34.9752 6.23663 34.4645 6.80814L32.4783 9.03107C32.2912 9.24043 32.2008 9.51877 32.229 9.7981L32.5293 12.764C32.6065 13.5265 31.8325 14.0889 31.1312 13.7798L28.4032 12.5777C28.1463 12.4645 27.8537 12.4645 27.5968 12.5777L24.8688 13.7798C24.1675 14.0889 23.3935 13.5265 23.4707 12.764L23.771 9.7981C23.7992 9.51878 23.7088 9.24043 23.5217 9.03107L21.5355 6.80814C21.0248 6.23663 21.3205 5.3267 22.0695 5.1645L24.9831 4.53359C25.2575 4.47417 25.4942 4.30214 25.6355 4.05954L27.1359 1.48359Z" fill="#FFC107"/>
<path d="M47.1359 1.48359C47.5216 0.821322 48.4784 0.821321 48.8641 1.48359L50.3645 4.05954C50.5058 4.30214 50.7425 4.47417 51.0169 4.53359L53.9304 5.1645C54.6795 5.3267 54.9752 6.23663 54.4645 6.80814L52.4783 9.03107C52.2912 9.24043 52.2008 9.51877 52.229 9.7981L52.5293 12.764C52.6065 13.5265 51.8325 14.0889 51.1312 13.7798L48.4032 12.5777C48.1463 12.4645 47.8537 12.4645 47.5968 12.5777L44.8688 13.7798C44.1675 14.0889 43.3935 13.5265 43.4707 12.764L43.771 9.7981C43.7992 9.51878 43.7088 9.24043 43.5217 9.03107L41.5355 6.80814C41.0248 6.23663 41.3205 5.3267 42.0695 5.1645L44.9831 4.53359C45.2575 4.47417 45.4942 4.30214 45.6355 4.05954L47.1359 1.48359Z" fill="#FFC107"/>
<path d="M67.1359 1.48359C67.5216 0.821322 68.4784 0.821321 68.8641 1.48359L70.3645 4.05954C70.5058 4.30214 70.7425 4.47417 71.0169 4.53359L73.9304 5.1645C74.6795 5.3267 74.9752 6.23663 74.4645 6.80814L72.4783 9.03107C72.2912 9.24043 72.2008 9.51877 72.229 9.7981L72.5293 12.764C72.6065 13.5265 71.8325 14.0889 71.1312 13.7798L68.4032 12.5777C68.1463 12.4645 67.8537 12.4645 67.5968 12.5777L64.8688 13.7798C64.1675 14.0889 63.3935 13.5265 63.4707 12.764L63.771 9.7981C63.7992 9.51878 63.7088 9.24043 63.5217 9.03107L61.5355 6.80814C61.0248 6.23663 61.3205 5.3267 62.0695 5.1645L64.9831 4.53359C65.2575 4.47417 65.4942 4.30214 65.6355 4.05954L67.1359 1.48359Z" fill="#FFC107"/>
<path d="M87.1359 1.48359C87.5216 0.821322 88.4784 0.821321 88.8641 1.48359L90.3645 4.05954C90.5058 4.30214 90.7425 4.47417 91.0169 4.53359L93.9304 5.1645C94.6795 5.3267 94.9752 6.23663 94.4645 6.80814L92.4783 9.03107C92.2912 9.24043 92.2008 9.51877 92.229 9.7981L92.5293 12.764C92.6065 13.5265 91.8325 14.0889 91.1312 13.7798L88.4032 12.5777C88.1463 12.4645 87.8537 12.4645 87.5968 12.5777L84.8688 13.7798C84.1675 14.0889 83.3935 13.5265 83.4707 12.764L83.771 9.7981C83.7992 9.51878 83.7088 9.24043 83.5217 9.03107L81.5355 6.80814C81.0248 6.23663 81.3205 5.3267 82.0695 5.1645L84.9831 4.53359C85.2575 4.47417 85.4942 4.30214 85.6355 4.05954L87.1359 1.48359Z" fill="#FFC107"/>
</svg>
