<svg width="24" height="24" viewBox="0 0 24 24" fill="none" xmlns="http://www.w3.org/2000/svg">
<path fill-rule="evenodd" clip-rule="evenodd" d="M21.2068 1.76423C20.4808 1.89435 19.4895 2.22308 18.0445 2.7059L6.93274 6.40924C5.52365 6.87836 4.50151 7.21908 3.75673 7.51014C2.98285 7.81148 2.64384 8.0118 2.50174 8.14705C2.25212 8.38672 2.05352 8.67437 1.91785 8.99271C1.78218 9.31105 1.71224 9.65353 1.71224 9.99958C1.71224 10.3456 1.78218 10.6881 1.91785 11.0065C2.05352 11.3248 2.25212 11.6124 2.50174 11.8521C2.64384 11.9891 2.98285 12.1877 3.75673 12.489C4.82862 12.8874 5.90924 13.2619 6.9978 13.6122C7.49774 13.7783 7.84359 13.893 8.15691 14.059C8.91581 14.4611 9.53623 15.0821 9.93753 15.8414C10.1053 16.1547 10.22 16.5005 10.3861 17.0005L10.4084 17.0673C10.8775 18.4746 11.2182 19.4985 11.5093 20.2416C11.8106 21.0154 12.0109 21.3544 12.1479 21.4965C12.3875 21.7459 12.6751 21.9443 12.9933 22.0798C13.3114 22.2153 13.6537 22.2852 13.9996 22.2852C14.3454 22.2852 14.6877 22.2153 15.0059 22.0798C15.324 21.9443 15.6116 21.7459 15.8512 21.4965C15.9882 21.3544 16.1868 21.0154 16.4881 20.2416C16.7792 19.4985 17.1216 18.4746 17.589 17.0673L21.2941 5.95381C21.7752 4.50877 22.1039 3.51574 22.2323 2.79151C22.3625 2.05871 22.2341 1.89264 22.169 1.82929C22.1056 1.76423 21.9396 1.6341 21.2068 1.76423ZM20.9072 0.0812C21.7803 -0.0728919 22.6963 -0.064331 23.3812 0.61881C24.0643 1.30366 24.0729 2.21965 23.9188 3.09284C23.7647 3.95747 23.3949 5.06864 22.9429 6.42636L22.9172 6.49485L19.2139 17.61L19.2053 17.6357C18.8554 18.7208 18.4815 19.798 18.0839 20.8665C17.7842 21.6301 17.4846 22.2704 17.0857 22.6848C16.6862 23.1006 16.2069 23.4315 15.6764 23.6575C15.146 23.8835 14.5753 24 13.9987 24C13.4221 24 12.8514 23.8835 12.321 23.6575C11.7905 23.4315 11.3112 23.1006 10.9117 22.6848C10.5145 22.2687 10.2132 21.6301 9.91356 20.8665C9.60537 20.0772 9.25096 19.0122 8.79211 17.6357L8.78355 17.61C8.58666 17.0193 8.51646 16.8173 8.424 16.6444C8.18334 16.1885 7.81107 15.8157 7.35563 15.5743C7.18442 15.4835 6.98068 15.4133 6.38999 15.2147L6.36431 15.2079C5.27939 14.8575 4.2022 14.4836 3.13351 14.0864C2.3699 13.7868 1.72957 13.4872 1.31523 13.0883C0.899381 12.6888 0.568522 12.2095 0.342512 11.679C0.116502 11.1486 0 10.5779 0 10.0013C0 9.42469 0.116502 8.85402 0.342512 8.32355C0.568522 7.79309 0.899381 7.31375 1.31523 6.91432C1.73128 6.51539 2.3699 6.21577 3.13351 5.91615C3.92281 5.60796 4.98775 5.25355 6.36431 4.7947L6.38999 4.78614L17.5034 1.0828L17.5736 1.05883C18.9314 0.606825 20.0425 0.237005 20.9072 0.0829128" fill="#CC9145"/>
</svg>
