<svg width="36" height="36" viewBox="0 0 36 36" fill="none" xmlns="http://www.w3.org/2000/svg">
<path d="M10.5 16.0151C10.5 16.0151 11.0793 21.1613 13.336 23.3088C15.5926 25.4564 21 26.0077 21 26.0077C21 26.0077 15.5926 26.5591 13.336 28.7066C11.0793 30.8542 10.5 36.0003 10.5 36.0003C10.5 36.0003 9.92066 30.8542 7.66405 28.7066C5.40743 26.5591 0 26.0077 0 26.0077C0 26.0077 5.40743 25.4564 7.66405 23.3088C9.92066 21.1613 10.5 16.0151 10.5 16.0151Z" fill="#CC9145"/>
<path d="M25.5 7.53174C25.5 7.53174 26.0793 12.6779 28.336 14.8254C30.5926 16.973 36 17.5243 36 17.5243C36 17.5243 30.5926 18.0757 28.336 20.2232C26.0793 22.3708 25.5 27.5169 25.5 27.5169C25.5 27.5169 24.9207 22.3708 22.664 20.2232C20.4074 18.0757 15 17.5243 15 17.5243C15 17.5243 20.4074 16.973 22.664 14.8254C24.9207 12.6779 25.5 7.53174 25.5 7.53174Z" fill="#CC9145"/>
<path d="M10.5 0C10.5 0 11.0793 5.14612 13.336 7.29368C15.5926 9.44124 21 9.99258 21 9.99258C21 9.99258 15.5926 10.5439 13.336 12.6915C11.0793 14.839 10.5 19.9852 10.5 19.9852C10.5 19.9852 9.92066 14.839 7.66405 12.6915C5.40743 10.5439 0 9.99258 0 9.99258C0 9.99258 5.40743 9.44124 7.66405 7.29368C9.92066 5.14612 10.5 0 10.5 0Z" fill="#CC9145"/>
</svg>
