<svg width="17" height="11" viewBox="0 0 17 11" fill="none" xmlns="http://www.w3.org/2000/svg">
<path d="M2.78571 0.5H9.64286C10.2491 0.5 10.8304 0.740816 11.2591 1.16947C11.6878 1.59812 11.9286 2.17951 11.9286 2.78571V7.35714C11.9286 7.96335 11.6878 8.54473 11.2591 8.97339C10.8304 9.40204 10.2491 9.64286 9.64286 9.64286H2.78571C2.17951 9.64286 1.59812 9.40204 1.16947 8.97339C0.740816 8.54473 0.5 7.96335 0.5 7.35714V2.78571C0.5 2.17951 0.740816 1.59812 1.16947 1.16947C1.59812 0.740816 2.17951 0.5 2.78571 0.5ZM11.9286 3.92857L14.6714 1.87143C14.8412 1.74408 15.0431 1.66654 15.2545 1.64748C15.4659 1.62841 15.6784 1.66859 15.8682 1.76351C16.0581 1.85843 16.2177 2.00433 16.3293 2.18488C16.4409 2.36542 16.5 2.57347 16.5 2.78571V7.35714C16.5 7.56939 16.4409 7.77743 16.3293 7.95798C16.2177 8.13852 16.0581 8.28443 15.8682 8.37935C15.6784 8.47426 15.4659 8.51444 15.2545 8.49538C15.0431 8.47632 14.8412 8.39877 14.6714 8.27143L11.9286 6.21429V3.92857Z" stroke="#CC9145" stroke-linecap="round" stroke-linejoin="round"/>
</svg>
